<?xml version="1.0" standalone="no"?>
<!DOCTYPE svg PUBLIC "-//W3C//DTD SVG 20010904//EN"
 "http://www.w3.org/TR/2001/REC-SVG-20010904/DTD/svg10.dtd">
<svg version="1.0" xmlns="http://www.w3.org/2000/svg"
 width="100.000000pt" height="100.000000pt" viewBox="0 0 100.000000 100.000000"
 preserveAspectRatio="xMidYMid meet">

<g transform="translate(0.000000,100.000000) scale(0.100000,-0.100000)"
fill="#000000" stroke="none">
<path d="M23 663 c-22 -4 -23 -9 -23 -109 0 -57 3 -104 8 -104 4 -1 43 -2 87
-3 l80 -2 3 -77 3 -78 409 0 410 0 0 85 0 84 -62 3 -63 3 -3 98 -3 97 -368 0
c-202 0 -388 2 -412 4 -24 2 -54 2 -66 -1z m827 -113 l0 -90 -415 0 -415 0 0
93 0 92 415 -3 415 -2 0 -90z m-570 -139 c0 -5 -6 -11 -12 -14 -7 -3 13 -3 46
-1 51 4 58 2 52 -12 -3 -8 -6 -19 -6 -23 0 -13 -63 -11 -79 2 -11 9 -15 9 -18
0 -3 -7 -9 -13 -14 -13 -10 0 -12 53 -2 63 10 10 33 8 33 -2z m155 -1 c3 -5 1
-10 -6 -10 -10 0 -10 -3 0 -12 11 -10 14 -10 18 0 6 15 35 16 51 0 9 -9 12 -9
12 1 0 9 9 12 25 9 14 -3 25 -1 25 6 0 6 7 2 15 -8 8 -11 15 -14 15 -8 0 7 11
12 25 12 20 0 25 -5 25 -24 0 -23 -3 -24 -65 -24 -36 0 -65 5 -65 11 0 6 -4 6
-12 -1 -16 -13 -98 -14 -98 -1 0 5 6 9 13 9 8 0 8 3 -2 9 -8 5 -11 16 -8 25 7
18 23 21 32 6z m222 -42 c-2 -13 -4 -5 -4 17 -1 22 1 32 4 23 2 -10 2 -28 0
-40z m87 46 c9 -3 16 -12 16 -20 0 -12 4 -12 20 -2 15 10 22 10 32 0 9 -9 15
-9 26 0 10 9 18 9 32 0 10 -6 20 -8 22 -3 2 5 13 12 26 15 19 7 22 4 22 -23 0
-29 -1 -29 -55 -29 -30 0 -55 5 -55 9 0 5 -9 4 -20 -3 -15 -9 -22 -10 -31 -1
-8 8 -16 9 -29 1 -37 -23 -80 23 -45 48 22 16 19 16 39 8z"/>
<path d="M80 561 c0 -23 5 -41 13 -44 18 -6 47 4 47 16 0 5 9 2 19 -7 25 -22
58 -13 64 17 l4 22 2 -22 c1 -30 18 -30 24 0 4 21 4 21 6 1 3 -47 61 -39 61 8
0 27 -3 29 -30 26 -19 -2 -35 3 -41 12 -8 11 -12 12 -16 3 -2 -7 -18 -13 -33
-13 -16 0 -32 -5 -35 -11 -5 -7 -14 -3 -26 10 -11 12 -29 21 -39 21 -17 0 -20
-7 -20 -39z m43 5 c3 -8 -1 -20 -9 -26 -12 -10 -14 -8 -14 14 0 28 14 35 23
12z m75 -17 c-2 -6 -8 -10 -13 -10 -5 0 -11 4 -13 10 -2 6 4 11 13 11 9 0 15
-5 13 -11z m104 -4 c0 -5 -5 -11 -11 -13 -6 -2 -11 4 -11 13 0 9 5 15 11 13 6
-2 11 -8 11 -13z"/>
<path d="M373 593 c-20 -7 -15 -29 10 -46 l22 -16 -22 6 c-13 3 -23 1 -23 -5
0 -15 29 -23 49 -12 12 6 22 5 29 -2 6 -6 18 -7 29 -3 10 5 24 7 31 6 8 -1 12
12 12 40 0 23 -3 39 -7 35 -5 -4 -8 -12 -8 -17 0 -11 -5 -12 -28 -3 -10 4 -25
0 -35 -8 -17 -16 -42 -14 -42 3 0 4 7 6 15 3 8 -4 15 -2 15 4 0 8 -26 25 -33
21 -1 0 -8 -3 -14 -6z m105 -42 c11 -7 10 -10 -3 -15 -19 -7 -35 0 -35 15 0
11 20 12 38 0z"/>
<path d="M533 573 c-17 -6 -16 -38 1 -52 22 -18 48 -2 44 28 -3 25 -20 35 -45
24z"/>
<path d="M590 550 c0 -16 5 -30 10 -30 6 0 10 9 10 20 0 11 5 20 10 20 6 0 10
-12 10 -27 0 -20 3 -24 12 -15 8 8 17 8 30 1 14 -7 23 -7 34 2 10 8 17 9 28 0
30 -25 65 13 41 46 -12 15 -17 16 -35 5 -17 -11 -25 -11 -37 -1 -11 10 -19 10
-33 1 -12 -7 -21 -8 -25 -2 -3 6 -17 10 -31 10 -20 0 -24 -5 -24 -30z m118 1
c11 -7 10 -10 -3 -15 -20 -7 -38 1 -30 15 7 11 16 11 33 0z m59 -17 c-3 -3
-12 -4 -19 -1 -8 3 -5 6 6 6 11 1 17 -2 13 -5z"/>
<path d="M300 370 c0 -5 5 -10 10 -10 6 0 10 5 10 10 0 6 -4 10 -10 10 -5 0
-10 -4 -10 -10z"/>
<path d="M465 381 c-3 -5 -1 -12 5 -16 5 -3 10 1 10 9 0 18 -6 21 -15 7z"/>
<path d="M525 380 c-8 -13 9 -20 24 -11 10 6 9 10 -3 14 -8 3 -18 2 -21 -3z"/>
<path d="M600 370 c0 -5 5 -10 10 -10 6 0 10 5 10 10 0 6 -4 10 -10 10 -5 0
-10 -4 -10 -10z"/>
<path d="M715 390 c-8 -12 2 -30 17 -30 7 0 7 5 -1 14 -9 11 -9 15 1 19 9 4 9
6 1 6 -6 1 -15 -3 -18 -9z"/>
<path d="M786 381 c-4 -5 -2 -12 3 -15 5 -4 12 -2 15 3 4 5 2 12 -3 15 -5 4
-12 2 -15 -3z"/>
<path d="M845 370 c3 -5 8 -10 11 -10 2 0 4 5 4 10 0 6 -5 10 -11 10 -5 0 -7
-4 -4 -10z"/>
<path d="M900 370 c0 -5 5 -10 10 -10 6 0 10 5 10 10 0 6 -4 10 -10 10 -5 0
-10 -4 -10 -10z"/>
</g>
</svg>
