<?xml version="1.0" encoding="UTF-8" standalone="no"?>
<!-- Created with Inkscape (http://www.inkscape.org/) -->

<svg
   xmlns:dc="http://purl.org/dc/elements/1.1/"
   xmlns:cc="http://creativecommons.org/ns#"
   xmlns:rdf="http://www.w3.org/1999/02/22-rdf-syntax-ns#"
   xmlns:svg="http://www.w3.org/2000/svg"
   xmlns="http://www.w3.org/2000/svg"
   version="1.1"
   width="715.74799"
   height="583.93701"
   id="svg3531">
  <defs
     id="defs3533" />
  <metadata
     id="metadata3536">
    <rdf:RDF>
      <cc:Work
         rdf:about="">
        <dc:format>image/svg+xml</dc:format>
        <dc:type
           rdf:resource="http://purl.org/dc/dcmitype/StillImage" />
        <dc:title></dc:title>
      </cc:Work>
    </rdf:RDF>
  </metadata>
  <g
     transform="translate(-23.227698,-223.72964)"
     id="layer1">
    <g
       transform="matrix(6.571996,0,0,6.571996,-5139.3749,-3658.9614)"
       id="g3586">
      <path
         d="m 824.96896,642.75718 c 1.88149,-1.59708 2.65499,-2.07094 3.36578,-2.07094 0.52264,0 1.25433,0.25448 1.73515,0.57916 l -0.75259,1.87789 -0.20906,-0.11408 c -1.02437,-0.55284 -1.5261,-0.74589 -2.06964,-0.74589 -0.62716,0 -1.19161,0.30713 -2.06964,1.15832 l 0,4.87022 c 0,1.54443 0.25086,1.87789 1.35885,1.87789 l 0.27177,0 0,0.46508 -5.18455,0 0,-0.46508 0.25086,0 c 1.1289,0 1.37976,-0.33346 1.37976,-1.87789 l 0,-4.51043 0,-0.74589 c 0,-1.35138 -0.27177,-1.62341 -1.547,-1.62341 l -0.3763,0 0,-0.46508 3.84661,-0.30713"
         id="path3215"
         style="fill:#82755f;fill-opacity:1;fill-rule:nonzero;stroke:none" />
      <path
         d="m 861.72079,638.34327 -0.45992,0 -0.0209,-0.21938 c -0.31358,-1.2373 -0.62716,-1.86911 -1.31705,-2.39562 -0.60625,-0.46508 -1.35885,-0.73711 -2.15326,-0.73711 -1.65153,0 -2.84314,1.07057 -2.84314,2.50092 0,0.77222 0.3972,1.62341 1.02436,2.23767 0.3763,0.351 0.81532,0.68446 1.31705,1.00914 0.35539,0.22816 0.96165,0.60549 1.81878,1.132 1.27523,0.79854 1.90239,1.29872 2.44594,1.95686 0.68988,0.82487 1.04527,1.73748 1.04527,2.72908 0,2.47459 -2.00693,4.48411 -4.47377,4.48411 -0.85713,0 -1.33795,-0.11408 -2.61319,-0.52651 -0.64807,-0.21938 -0.89893,-0.29836 -1.00346,-0.29836 -0.27177,0 -0.45992,0.19306 -0.60626,0.60549 l -0.45992,0 0,-4.26473 0.45992,0 0.0209,0.29835 c 0.22996,1.49178 0.52264,2.06217 1.44248,2.75541 0.64807,0.54406 1.48429,0.82486 2.34141,0.82486 1.9024,0 3.15673,-1.15832 3.15673,-2.8607 0,-0.96527 -0.35539,-1.63218 -1.31704,-2.39562 -0.58536,-0.50019 -1.19162,-0.93895 -1.83969,-1.35138 -1.02437,-0.65814 -1.69334,-1.07057 -2.04873,-1.32505 -0.3763,-0.27203 -0.77351,-0.63181 -1.1289,-1.04424 -0.68988,-0.8512 -1.00346,-1.79014 -1.00346,-2.88703 0,-2.43073 1.75606,-4.08046 4.28562,-4.08046 0.79441,0 1.27524,0.0878 2.19508,0.38611 0.56444,0.19305 0.75259,0.21938 0.91984,0.21938 0.20905,0 0.29268,-0.079 0.3763,-0.32468 0,-0.0351 0.0418,-0.0614 0.0418,-0.11408 l 0.3972,0"
         id="path3217"
         style="fill:#82755f;fill-opacity:1;fill-rule:nonzero;stroke:none" />
      <path
         d="m 849.09388,645.37218 c -0.41811,0.19305 -0.52264,0.2457 -1.12889,0.43876 -1.83969,0.60548 -2.38323,1.10567 -2.38323,2.31664 0,1.01792 0.68988,1.84279 1.5261,1.84279 0.7735,0 1.48429,-0.43876 1.98602,-1.2373 l 0,-3.36089 z m 3.36578,3.54517 c -0.0209,1.15832 -0.81531,1.98318 -1.9233,1.98318 -0.79441,0 -1.29614,-0.3861 -1.65153,-1.31627 -0.96166,0.99159 -1.56791,1.31627 -2.59228,1.31627 -1.54701,0 -2.80134,-1.14954 -2.80134,-2.55357 0,-1.40403 0.87803,-2.17624 3.24035,-2.83438 1.44248,-0.42121 1.73516,-0.50018 2.15327,-0.74589 l 0,-0.71956 c 0,-1.40403 -0.87803,-2.39562 -2.17417,-2.39562 -1.1289,0 -1.96512,0.63181 -2.50866,1.90421 l -0.0836,0.21938 -0.45992,-0.1404 c 0.41811,-1.79014 1.83968,-2.94846 3.59574,-2.94846 1.29614,0 2.48775,0.60549 3.07311,1.57076 0.35539,0.60548 0.45992,1.10567 0.45992,2.50969 l 0,3.63292 c 0,1.132 0.10452,1.45668 0.52263,1.45668 0.33449,0 0.54355,-0.29836 0.68988,-0.93894"
         id="path3219"
         style="fill:#82755f;fill-opacity:1;fill-rule:nonzero;stroke:none" />
      <path
         d="m 834.08375,648.06616 c -1.42158,0 -2.40413,-1.40403 -2.40413,-3.49252 0,-2.00951 0.98255,-3.36089 2.42503,-3.36089 1.44248,0 2.40413,1.35138 2.40413,3.33456 0,2.14992 -0.96165,3.51885 -2.42503,3.51885 z m -0.83622,5.31775 1.88149,0.3861 c 2.80133,0.60549 3.57484,1.04425 3.57484,2.14992 0,1.28995 -1.5052,2.20257 -3.65846,2.20257 -2.78043,0 -4.89188,-1.07935 -4.89188,-2.48338 0,-0.99159 0.98255,-1.81646 2.82224,-2.30786 l 0.27177,0.0526 z m 6.62703,-10.13532 0,4.81757 0,0.79854 c 0,0.99159 -0.35539,1.35137 -1.35885,1.35137 l -0.50173,0 0,0.46509 5.3518,0 0,-0.46509 c -1.46338,-0.0263 -1.65153,-0.2457 -1.65153,-1.86911 l 0,-7.75725 -2.19508,0.21061 -3.09401,0 c -0.50173,0 -0.7526,0 -1.37976,-0.0614 -0.43902,-0.0175 -0.83622,-0.0175 -1.17071,-0.0175 -2.38322,0 -4.11838,1.64973 -4.11838,3.93127 0,1.93054 1.06618,3.24681 3.07311,3.77332 l 0,0.0526 c -2.21598,0.83365 -3.0522,1.57076 -3.0522,2.75541 0,0.85119 0.7735,1.5181 2.09055,1.81646 l 0,0.0614 c -2.50866,1.18464 -3.13583,1.81646 -3.13583,3.05375 0,1.79014 1.92331,2.97479 4.82917,2.97479 3.32397,0 5.95806,-1.79014 5.95806,-4.05413 0,-1.43035 -1.08708,-2.3342 -3.30306,-2.77295 l -2.2578,-0.44754 c -2.25779,-0.43876 -2.6968,-0.68446 -2.6968,-1.40402 0,-0.68447 1.21251,-1.50933 2.75952,-1.86911 2.34141,-0.0526 4.05566,-1.71116 4.05566,-3.94005 0,-0.96527 -0.3972,-1.95687 -1.10799,-2.78173 0,0 0.33449,-0.28958 1.04528,-0.32468 l 0.56444,0 c 0.89894,0 1.29614,0.3861 1.29614,1.2373 l 0,0.0526"
         id="path3221"
         style="fill:#82755f;fill-opacity:1;fill-rule:nonzero;stroke:none" />
      <path
         d="m 853.3795,655.8936 39.15596,0 0,-2.03583 -39.15596,0 0,2.03583 z"
         id="path3223"
         style="fill:#e22739;fill-opacity:1;fill-rule:nonzero;stroke:none" />
      <path
         d="m 874.80762,648.73307 c -0.50173,0.79854 -1.21252,1.2373 -1.98602,1.2373 -0.81531,0 -1.50519,-0.82487 -1.50519,-1.84279 0,-1.21097 0.52263,-1.71116 2.36232,-2.31664 0.60625,-0.19306 0.71078,-0.24571 1.12889,-0.43876 l 0,3.36089 z m 2.90586,0.18428 c -0.12543,0.64058 -0.35539,0.93894 -0.68988,0.93894 -0.3972,0 -0.52263,-0.32468 -0.52263,-1.45668 l 0,-3.63292 c 0,-1.40402 -0.10453,-1.90421 -0.45993,-2.50969 -0.58535,-0.96527 -1.75606,-1.57076 -3.0522,-1.57076 -1.77696,0 -3.19853,1.15832 -3.61664,2.94846 l 0.48082,0.1404 0.0836,-0.21938 c 0.54355,-1.2724 1.35886,-1.90421 2.48775,-1.90421 1.29614,0 2.19508,0.99159 2.19508,2.39562 l 0,0.71956 c -0.41811,0.24571 -0.73169,0.32468 -2.15326,0.74589 -2.36232,0.65814 -3.26126,1.43035 -3.26126,2.83438 0,0.25448 0.0627,0.50019 0.14634,0.72834 -0.56445,0.57916 -1.04527,0.78099 -1.73516,0.78099 -1.33795,0 -1.75606,-0.63181 -1.75606,-2.72908 l 0,-5.52835 3.38669,0 0,-0.63181 -3.38669,0 0,-3.36089 -0.50173,0 c -0.81531,1.67605 -1.79787,2.78173 -3.21944,3.55394 l 0,0.43876 1.81878,0 0,5.11592 0,1.38648 c 0,1.6234 1.19161,2.79927 2.82224,2.79927 1.00346,0 1.96511,-0.4563 2.78042,-1.36015 0.48083,0.80732 1.40067,1.36015 2.46685,1.36015 1.02437,0 1.60972,-0.32468 2.59228,-1.31627 0.35539,0.93017 0.83622,1.31627 1.65153,1.31627 1.08709,0 1.8815,-0.82486 1.92331,-1.98318"
         id="path3225"
         style="fill:#82755f;fill-opacity:1;fill-rule:nonzero;stroke:none" />
      <path
         d="m 836.80146,668.6878 0,-7.6344 -3.70027,0.35978 0,0.47386 0.54354,0 c 0.91984,0 1.29614,0.38611 1.29614,1.2373 l 0,0.0527 0,0.41243 0,4.81757 0,0.79854 c 0,0.99159 -0.35539,1.35138 -1.33795,1.35138 l -0.22996,0 c -1.10799,0 -1.35886,-0.33346 -1.35886,-1.86911 l 0,-3.99271 c 0,-2.26399 -1.29614,-3.64169 -3.32397,-3.64169 -1.25433,0 -2.38322,0.61426 -3.51212,1.90421 l 0,-1.93053 -3.51212,0.30713 0,0.46508 0.27177,0 c 1.10799,0.0351 1.40067,0.33346 1.40067,1.43035 l 0,0.91262 0,4.54554 c 0,1.53565 -0.27177,1.86911 -1.37976,1.86911 l -0.16725,0 c -1.12889,0 -1.58881,-0.71079 -1.58881,-2.50093 l 0,-0.50018 0,-8.83659 0,-0.50019 c 0,-1.78136 0.45992,-2.50092 1.58881,-2.50092 l 0.18815,0 0,-0.47386 -5.58176,0 0,0.47386 0.10453,0 c 1.12889,0 1.58881,0.71956 1.58881,2.50092 l 0,0.50019 0,9.00332 c -1.08708,1.71115 -2.6968,2.615 -4.53648,2.615 -1.42158,0 -2.69681,-0.60549 -3.32398,-1.59708 -0.43901,-0.68447 -0.62716,-1.72871 -0.62716,-3.22049 l 0,-6.80075 0,-0.50019 c 0,-1.78136 0.43901,-2.50092 1.58882,-2.50092 l 0.18815,0 0,-0.47386 -5.7072,0 0,0.47386 0.22996,0 c 1.1289,0 1.56791,0.71956 1.56791,2.50092 l 0,0.50019 0,5.78283 0,1.29873 c 0,3.37843 2.06964,5.50202 5.37271,5.50202 2.09055,0 3.74208,-0.79854 5.24727,-2.47459 l 0,2.19379 3.59575,0 0.29267,0 4.82917,0 0,-0.46508 -0.27177,0 c -1.10799,0 -1.35886,-0.33346 -1.35886,-1.86911 l 0,-4.81757 c 0.94075,-1.32505 1.79787,-1.87789 2.75953,-1.87789 1.5261,0 2.15326,0.79854 2.15326,2.75541 l 0,3.94005 c 0,1.53565 -0.25087,1.86911 -1.37976,1.86911 l -0.27177,0 0,0.46508 4.66192,0 0.54354,0 4.80826,0 0,-0.46508 c -1.46338,-0.0263 -1.65153,-0.24571 -1.65153,-1.86911"
         id="path3227"
         style="fill:#82755f;fill-opacity:1;fill-rule:nonzero;stroke:none" />
      <path
         d="m 848.38309,661.79929 c -1.10799,0.0877 -1.48428,0.35978 -1.88149,1.35138 l -0.16724,0.46508 -2.96858,7.63439 -0.43902,0 -3.15672,-7.68704 c -0.66898,-1.59708 -0.81532,-1.72871 -2.04874,-1.76381 l 0,-0.46508 4.74554,0 0,0.46508 c -0.64807,0.0614 -0.96165,0.33346 -0.96165,0.79854 0,0.25448 0.0418,0.43876 0.29268,1.10567 l 2.06964,4.95797 1.86059,-4.87899 c 0.20905,-0.52651 0.31358,-0.90384 0.31358,-1.0969 0,-0.55283 -0.27177,-0.77221 -1.00346,-0.85119 -0.0418,0 -0.12543,-0.0351 -0.22996,-0.0351 l 0,-0.46508 3.57483,0"
         id="path3229"
         style="fill:#82755f;fill-opacity:1;fill-rule:nonzero;stroke:none" />
      <path
         d="m 871.12826,664.00186 c -0.0209,-0.079 -0.0627,-0.13163 -0.0836,-0.19306 -0.52264,-1.67605 -1.19162,-2.25521 -2.42504,-2.25521 -0.96165,0 -1.60972,0.52651 -1.60972,1.32505 0,0.85119 0.48083,1.3426 1.94421,1.97441 1.44248,0.64059 1.79787,0.83364 2.23689,1.24607 0.60625,0.57916 0.96165,1.3777 0.96165,2.20257 0,1.6234 -1.40067,2.97478 -3.11492,2.97478 -0.52264,0 -1.19161,-0.16673 -1.75606,-0.43876 -0.33449,-0.16673 -0.56445,-0.22815 -0.73169,-0.22815 -0.27177,0 -0.48083,0.16673 -0.56445,0.47386 0,0.0263 -0.0209,0.11407 -0.0627,0.19305 l -0.45992,0 0,-3.33456 0.45992,0 c 0.50173,1.84278 1.56791,2.83438 3.13582,2.83438 0.96166,0 1.71425,-0.71079 1.71425,-1.67606 0,-1.04425 -0.58535,-1.54443 -2.84314,-2.5097 -1.58882,-0.68446 -2.34142,-1.53565 -2.34142,-2.74663 0,-1.5181 1.35886,-2.7905 2.98949,-2.7905 0.31358,0 0.64807,0.0614 0.96165,0.1404 l 0.64807,0.21938 c 0.14634,0.0263 0.25087,0.0614 0.3972,0.0614 0.25087,0 0.39721,-0.11407 0.54355,-0.3861 l 0.43901,0 0,2.91335"
         id="path3231"
         style="fill:#82755f;fill-opacity:1;fill-rule:nonzero;stroke:none" />
      <path
         d="m 876.35463,668.6878 c 0,1.6234 0.18815,1.84278 1.65153,1.86911 l 0,0.46508 -5.3518,0 0,-0.46508 0.50173,0 c 0.98256,0 1.33795,-0.35979 1.33795,-1.35138 l 0,-0.79854 0,-4.81757 0,-0.41243 0,-0.0527 c 0,-0.85119 -0.3763,-1.2373 -1.27523,-1.2373 l -0.56445,0 0,-0.47386 3.70027,-0.35978"
         id="path3233"
         style="fill:#82755f;fill-opacity:1;fill-rule:nonzero;stroke:none" />
      <path
         d="m 890.11043,661.33421 0,0.46508 c 0.73169,0.0614 0.98256,0.30713 0.98256,0.91262 0,0.2457 -0.0418,0.51773 -0.18814,0.93894 l -1.73517,5.11592 -2.17417,-5.01062 c -0.25086,-0.63181 -0.33449,-0.85119 -0.33449,-1.18464 0,-0.46509 0.22996,-0.68447 0.83623,-0.77222 l 0,-0.46508 -2.96858,0 -1.69334,0 -1.69335,0 0,-3.36089 -0.50173,0 c -0.81531,1.68483 -1.81878,2.78173 -3.21944,3.55394 l 0,0.43876 1.81877,0 0,5.1247 0,1.3777 c 0,1.6234 1.19162,2.80805 2.80134,2.80805 1.10799,0 2.13236,-0.52651 2.98948,-1.57075 l -0.31358,-0.35979 c -0.60626,0.65814 -1.10799,0.87752 -1.81878,0.87752 -1.33795,0 -1.75606,-0.63181 -1.75606,-2.7203 l 0,-5.53713 1.69335,0 0,0.009 c 1.10799,0.0263 1.44247,0.079 1.96511,1.17587 l 0.18815,0.43876 3.30306,7.71337 -1.19161,3.52762 c -0.54353,1.64973 -1.31704,2.39562 -2.52956,2.39562 -0.33449,0 -0.54354,-0.0614 -0.94075,-0.21938 l -0.62716,1.81646 c 0.52264,0.21938 0.7526,0.27203 1.1289,0.27203 0.75259,0 1.40066,-0.35978 1.98601,-1.04425 0.68988,-0.82486 0.89894,-1.32505 1.65153,-3.50129 l 3.55394,-10.48632 c 0.54354,-1.63218 1.1707,-2.26399 2.23688,-2.26399 l 0,-0.46509"
         id="path3235"
         style="fill:#82755f;fill-opacity:1;fill-rule:nonzero;stroke:none" />
      <path
         d="m 853.81852,607.46346 c -0.22996,1.70238 -0.50173,6.88851 2.61318,10.96018 2.86406,3.7821 6.33437,5.43183 6.89881,10.19675 0.0836,0.82486 0.0836,1.61463 -0.12543,2.19379 -6.4807,-3.94883 -10.22278,-9.45085 -10.22278,-17.51523 0,-2.11482 0.29268,-3.97515 0.83622,-5.83549"
         id="path3237"
         style="fill:#1a5dad;fill-opacity:1;fill-rule:nonzero;stroke:none" />
      <path
         d="m 865.12838,594.65172 c -1.42157,0.87752 -2.98948,2.71153 -3.51212,3.69434 -7.35873,13.54886 7.54688,19.32292 7.02425,28.63337 -0.0836,1.77259 -0.50174,3.8172 -1.54701,5.50203 0,0 -1.83968,-0.58794 -2.655,-1.05302 0.85713,-2.35174 0.89894,-3.86985 0.22996,-6.12507 -1.40066,-4.63328 -8.21585,-9.66145 -8.34128,-16.73424 -0.0836,-5.51958 2.86405,-11.61832 8.8012,-13.91741"
         id="path3239"
         style="fill:#1a5dad;fill-opacity:1;fill-rule:nonzero;stroke:none" />
      <path
         d="m 875.68565,611.55269 17.01706,0 c 0.0836,1.33382 0.12543,2.20257 0.12543,2.8256 0,7.28339 -3.4285,12.17993 -9.40746,15.96203 -4.93369,3.10641 -9.97191,3.02743 -9.97191,3.02743 3.19853,-3.09763 5.70719,-7.46766 5.45633,-12.36421 -0.22996,-4.35248 -1.92331,-6.50239 -3.21945,-9.45085"
         id="path3241"
         style="fill:#1a5dad;fill-opacity:1;fill-rule:nonzero;stroke:none" />
      <path
         d="m 873.53239,591.34348 c -1.1289,0.67569 -7.54688,4.84389 -5.47724,14.4878 1.1289,5.28265 7.6096,11.32874 7.33783,18.07684 -0.18815,4.86145 -2.96858,8.44171 -3.72118,9.44208 0,0 -1.54701,-0.0614 -2.98948,-0.42998 0.94074,-1.43913 2.23688,-4.42268 2.50865,-7.00258 0.91984,-8.84537 -8.06951,-12.67134 -7.67231,-21.68344 0.27177,-6.35322 3.88842,-10.8461 10.01373,-12.89072"
         id="path3243"
         style="fill:#1a5dad;fill-opacity:1;fill-rule:nonzero;stroke:none" />
      <path
         d="m 887.93626,641.21275 c 1.65153,0 2.61318,1.0969 2.61318,3.02743 l -5.28908,0 c 0.25087,-2.06216 1.12889,-3.02743 2.6759,-3.02743 z m 3.90932,7.72215 c -0.98255,0.95649 -1.81877,1.39525 -2.71771,1.39525 -1.04527,0 -2.17417,-0.69324 -2.90586,-1.76381 -0.71078,-1.02669 -0.91984,-1.90421 -1.00346,-3.86107 l 7.17058,0 0,-0.32468 c 0.0418,-1.93054 -1.96512,-3.69435 -4.1811,-3.69435 -2.75952,0 -4.93369,2.29032 -4.93369,5.20367 0,1.2022 0.39721,2.264 1.04528,3.09764 -0.60626,0.64936 -1.108,0.86874 -1.81878,0.86874 -1.33795,0 -1.75606,-0.63181 -1.75606,-2.72908 l 0,-5.52835 3.38669,0 0,-0.63181 -3.38669,0 0,-3.36089 -0.50173,0 c -0.81532,1.67605 -1.81878,2.78173 -3.21945,3.55394 l 0,0.43876 1.81878,0 0,5.11592 0,1.38648 c 0,1.6234 1.19161,2.79927 2.82224,2.79927 1.08708,0 2.11145,-0.51773 2.94767,-1.56198 0.96165,0.98282 2.32051,1.56198 3.93023,1.56198 1.35885,0 2.36232,-0.351 3.30306,-1.24607"
         id="path3245"
         style="fill:#82755f;fill-opacity:1;fill-rule:nonzero;stroke:none" />
      <path
         d="m 806.17493,641.21275 c 1.65153,0 2.61319,1.0969 2.61319,3.02743 l -5.28909,0 c 0.25087,-2.06216 1.1289,-3.02743 2.6759,-3.02743 z m 3.88842,7.53787 c -1.04527,1.08812 -1.94421,1.57953 -2.90586,1.57953 -1.04528,0 -2.17417,-0.69324 -2.88496,-1.76381 -0.73169,-1.02669 -0.94074,-1.90421 -1.02437,-3.86107 l 7.19149,0 0,-0.32468 c 0.0209,-1.93054 -1.98602,-3.69435 -4.202,-3.69435 -2.19508,0 -4.03476,1.47423 -4.68283,3.56272 l -6.25074,0 0,0.49141 0.60626,0 c 1.31705,0 1.73515,0.57916 1.73515,2.53602 l 0,0.89507 c 0,1.71116 -0.62716,2.22889 -2.6759,2.22889 -3.76298,0 -6.54341,-3.00988 -6.54341,-7.63439 0,-4.27351 2.36232,-7.24829 5.74901,-7.24829 1.35885,0 2.59227,0.55283 3.59574,1.46545 0.85712,0.74589 1.27523,1.53565 1.60972,2.86071 l 0.3972,0 -0.12543,-4.65084 -0.45992,0 c -0.20905,0.3861 -0.41811,0.52651 -0.89894,0.52651 -0.0836,0 -0.14633,0 -0.22996,-0.0351 -0.14633,0 -0.31358,-0.0263 -0.45992,-0.079 -0.12543,-0.0263 -0.3972,-0.11408 -0.81531,-0.21938 -1.1289,-0.30713 -1.73515,-0.43876 -2.57137,-0.43876 -4.5783,0 -8.13224,3.82597 -8.13224,8.74884 0,4.76492 3.57484,7.45012 9.17751,7.45012 1.58882,0 3.4285,-0.21938 4.47377,-0.50019 l 0,-3.26436 c 0,-2.02706 0.39721,-2.63255 1.69335,-2.64132 -0.0627,0.37733 -0.10453,0.75466 -0.10453,1.14954 0,2.92213 2.19507,5.01062 5.24727,5.01062 1.44248,0 2.48776,-0.39488 3.49122,-1.42157"
         id="path3247"
         style="fill:#82755f;fill-opacity:1;fill-rule:nonzero;stroke:none" />
      <path
         d="m 813.22008,645.67054 c 0,2.94845 1.27523,4.71226 3.34487,4.71226 2.02784,0 3.28216,-1.79013 3.28216,-4.68594 0,-2.88703 -1.21251,-4.56309 -3.36578,-4.56309 -2.00692,0 -3.26125,1.75504 -3.26125,4.53677 z m 8.44581,0.0878 c 0,2.93968 -2.2787,5.14224 -5.3309,5.14224 -3.0522,0 -5.3518,-2.20256 -5.3518,-5.14224 0,-2.89581 2.2996,-5.15103 5.24728,-5.15103 3.0522,0 5.43542,2.25522 5.43542,5.15103"
         id="path3249"
         style="fill:#82755f;fill-opacity:1;fill-rule:nonzero;stroke:none" />
      <path
         d="m 852.18789,661.57991 c 1.65154,0 2.61319,1.10567 2.61319,3.02743 l -5.28909,0 c 0.25087,-2.06216 1.1289,-3.02743 2.6759,-3.02743 z m 3.88842,7.7397 c -0.96165,0.94772 -1.79787,1.3777 -2.69681,1.3777 -1.04527,0 -2.17417,-0.69324 -2.90586,-1.76381 -0.71078,-1.01792 -0.91984,-1.89543 -1.00346,-3.8523 l 7.19148,0 0,-0.33345 c 0.0209,-1.93054 -1.98602,-3.69435 -4.202,-3.69435 -2.73861,0 -4.93369,2.29032 -4.93369,5.21245 0,2.91336 2.21598,5.01062 5.26818,5.01062 1.35886,0 2.34141,-0.35101 3.28216,-1.22852"
         id="path3251"
         style="fill:#82755f;fill-opacity:1;fill-rule:nonzero;stroke:none" />
      <path
         d="m 860.40375,663.12434 c 1.88149,-1.59708 2.63409,-2.07094 3.36578,-2.07094 0.52264,0 1.25433,0.25448 1.73515,0.57916 l -0.75259,1.87789 -0.20906,-0.11408 c -1.02437,-0.54406 -1.5261,-0.74589 -2.06964,-0.74589 -0.62717,0 -1.19161,0.30713 -2.06964,1.15832 l 0,4.879 c 0,1.53565 0.25086,1.86911 1.35885,1.86911 l 0.27177,0 0,0.46508 -5.18456,0 0,-0.46508 0.25087,0 c 1.1289,0 1.37976,-0.33346 1.37976,-1.86911 l 0,-4.51921 0,-0.73712 c 0,-1.35137 -0.27177,-1.63218 -1.547,-1.63218 l -0.3763,0 0,-0.46508 3.84661,-0.30713"
         id="path3253"
         style="fill:#82755f;fill-opacity:1;fill-rule:nonzero;stroke:none" />
      <path
         d="m 892.45184,669.39858 c 0.18815,0 0.31358,-0.0702 0.31358,-0.23692 0,-0.14041 -0.10452,-0.22816 -0.27177,-0.22816 l -0.41811,0 0,0.46508 0.3763,0 z m -0.62716,-0.68446 0.68988,0 c 0.3972,0 0.52264,0.24571 0.52264,0.41243 0,0.25448 -0.18815,0.43876 -0.43902,0.45631 l 0,0.009 c 0.12543,0.0439 0.22996,0.18428 0.35539,0.38611 l 0.18815,0.30713 -0.31358,0 -0.12543,-0.2457 c -0.20906,-0.35101 -0.27177,-0.41244 -0.45992,-0.41244 l -0.16725,0 0,0.65814 -0.25086,0 0,-1.57075 z m 0.64807,-0.45631 c -0.68988,0 -1.23343,0.54406 -1.23343,1.21975 0,0.67569 0.54355,1.21975 1.23343,1.21975 0.66897,0 1.21252,-0.54406 1.21252,-1.21975 0,-0.67569 -0.54355,-1.21975 -1.21252,-1.21975 z m 0,2.67643 c -0.81532,0 -1.46339,-0.64936 -1.46339,-1.45668 0,-0.80731 0.64807,-1.45668 1.46339,-1.45668 0.79441,0 1.44248,0.64937 1.44248,1.45668 0,0.80732 -0.64807,1.45668 -1.44248,1.45668"
         id="path3255"
         style="fill:#82755f;fill-opacity:1;fill-rule:nonzero;stroke:none" />
    </g>
  </g>
</svg>
