<svg xmlns="http://www.w3.org/2000/svg" xml:space="preserve" width="355.51999" height="355.52667" viewBox="0 0 355.51999 355.52667"><defs><radialGradient id="a" cx="0" cy="0" r="1" fx="0" fy="0" gradientTransform="matrix(218.84273 0 0 218.84109 92.823 201.405)" gradientUnits="userSpaceOnUse" spreadMethod="pad"><stop offset="0" style="stop-opacity:1;stop-color:#fff"/><stop offset="0.258423" style="stop-opacity:1;stop-color:#fff"/><stop offset="0.88048946" style="stop-opacity:1;stop-color:#aaabab"/><stop offset="0.904495" style="stop-opacity:1;stop-color:#aaabab"/><stop offset="1" style="stop-opacity:1;stop-color:#aaabab"/></radialGradient><radialGradient id="b" cx="0" cy="0" r="1" fx="0" fy="0" gradientTransform="matrix(221.62624 0 0 221.62459 89.75 198.687)" gradientUnits="userSpaceOnUse" spreadMethod="pad"><stop offset="0" style="stop-opacity:1;stop-color:#96b2dd"/><stop offset="0.21818246" style="stop-opacity:1;stop-color:#0f579d"/><stop offset="0.247192" style="stop-opacity:1;stop-color:#0f579d"/><stop offset="0.567413" style="stop-opacity:1;stop-color:#004989"/><stop offset="0.90541913" style="stop-opacity:1;stop-color:#000039"/><stop offset="1" style="stop-opacity:1;stop-color:#000039"/></radialGradient><radialGradient id="d" cx="0" cy="0" r="1" fx="0" fy="0" gradientTransform="matrix(236.62877 0 0 236.62704 92.335 202.467)" gradientUnits="userSpaceOnUse" spreadMethod="pad"><stop offset="0" style="stop-opacity:1;stop-color:#96b2dd"/><stop offset="0.21818246" style="stop-opacity:1;stop-color:#0f579d"/><stop offset="0.247192" style="stop-opacity:1;stop-color:#0f579d"/><stop offset="0.567413" style="stop-opacity:1;stop-color:#004989"/><stop offset="0.90541913" style="stop-opacity:1;stop-color:#000039"/><stop offset="1" style="stop-opacity:1;stop-color:#000039"/></radialGradient><radialGradient id="f" cx="0" cy="0" r="1" fx="0" fy="0" gradientTransform="matrix(218.83295 0 0 218.83133 93.086 202.004)" gradientUnits="userSpaceOnUse" spreadMethod="pad"><stop offset="0" style="stop-opacity:1;stop-color:#fff"/><stop offset="0.258423" style="stop-opacity:1;stop-color:#fff"/><stop offset="0.88048946" style="stop-opacity:1;stop-color:#aaabab"/><stop offset="0.904495" style="stop-opacity:1;stop-color:#aaabab"/><stop offset="1" style="stop-opacity:1;stop-color:#aaabab"/></radialGradient><radialGradient id="g" cx="0" cy="0" r="1" fx="0" fy="0" gradientTransform="matrix(162.19662 0 0 162.1954 99.93 191.484)" gradientUnits="userSpaceOnUse" spreadMethod="pad"><stop offset="0" style="stop-opacity:1;stop-color:#96b2dd"/><stop offset="0.21818246" style="stop-opacity:1;stop-color:#0f579d"/><stop offset="0.247192" style="stop-opacity:1;stop-color:#0f579d"/><stop offset="0.567413" style="stop-opacity:1;stop-color:#004989"/><stop offset="0.90541913" style="stop-opacity:1;stop-color:#000039"/><stop offset="1" style="stop-opacity:1;stop-color:#000039"/></radialGradient><radialGradient id="h" cx="0" cy="0" r="1" fx="0" fy="0" gradientTransform="matrix(219.33218 0 0 219.33057 87.41 194.426)" gradientUnits="userSpaceOnUse" spreadMethod="pad"><stop offset="0" style="stop-opacity:1;stop-color:#96b2dd"/><stop offset="0.21818246" style="stop-opacity:1;stop-color:#0f579d"/><stop offset="0.247192" style="stop-opacity:1;stop-color:#0f579d"/><stop offset="0.567413" style="stop-opacity:1;stop-color:#004989"/><stop offset="0.90541913" style="stop-opacity:1;stop-color:#000039"/><stop offset="1" style="stop-opacity:1;stop-color:#000039"/></radialGradient><radialGradient id="i" cx="0" cy="0" r="1" fx="0" fy="0" gradientTransform="matrix(218.80177 0 0 218.80013 93.138 201.495)" gradientUnits="userSpaceOnUse" spreadMethod="pad"><stop offset="0" style="stop-opacity:1;stop-color:#fff"/><stop offset="0.10112" style="stop-opacity:1;stop-color:#fff"/><stop offset="0.31041043" style="stop-opacity:1;stop-color:#fff"/><stop offset="1" style="stop-opacity:1;stop-color:#949a9d"/></radialGradient><radialGradient id="j" cx="0" cy="0" r="1" fx="0" fy="0" gradientTransform="matrix(27.03088 -220.82822 220.82986 27.03068 89.013 201.05)" gradientUnits="userSpaceOnUse" spreadMethod="pad"><stop offset="0" style="stop-opacity:1;stop-color:#fff"/><stop offset="0.258423" style="stop-opacity:1;stop-color:#fff"/><stop offset="0.88048946" style="stop-opacity:1;stop-color:#aaabab"/><stop offset="0.904495" style="stop-opacity:1;stop-color:#aaabab"/><stop offset="1" style="stop-opacity:1;stop-color:#aaabab"/></radialGradient><radialGradient id="k" cx="0" cy="0" r="1" fx="0" fy="0" gradientTransform="matrix(26.7406 -218.45699 218.45862 26.7404 91.63 201.23)" gradientUnits="userSpaceOnUse" spreadMethod="pad"><stop offset="0" style="stop-opacity:1;stop-color:#fff"/><stop offset="0.258423" style="stop-opacity:1;stop-color:#fff"/><stop offset="0.88048946" style="stop-opacity:1;stop-color:#aaabab"/><stop offset="0.904495" style="stop-opacity:1;stop-color:#aaabab"/><stop offset="1" style="stop-opacity:1;stop-color:#aaabab"/></radialGradient><radialGradient id="l" cx="0" cy="0" r="1" fx="0" fy="0" gradientTransform="matrix(26.56808 -217.04778 217.04939 26.56789 93.125 201.971)" gradientUnits="userSpaceOnUse" spreadMethod="pad"><stop offset="0" style="stop-opacity:1;stop-color:#fff"/><stop offset="0.258423" style="stop-opacity:1;stop-color:#fff"/><stop offset="0.88048946" style="stop-opacity:1;stop-color:#aaabab"/><stop offset="0.904495" style="stop-opacity:1;stop-color:#aaabab"/><stop offset="1" style="stop-opacity:1;stop-color:#aaabab"/></radialGradient><radialGradient id="m" cx="0" cy="0" r="1" fx="0" fy="0" gradientTransform="matrix(26.5514 -216.91095 216.91257 26.5512 92.405 200.73)" gradientUnits="userSpaceOnUse" spreadMethod="pad"><stop offset="0" style="stop-opacity:1;stop-color:#fff"/><stop offset="0.258423" style="stop-opacity:1;stop-color:#fff"/><stop offset="0.88048946" style="stop-opacity:1;stop-color:#aaabab"/><stop offset="0.904495" style="stop-opacity:1;stop-color:#aaabab"/><stop offset="1" style="stop-opacity:1;stop-color:#aaabab"/></radialGradient><radialGradient id="n" cx="0" cy="0" r="1" fx="0" fy="0" gradientTransform="matrix(26.58507 -217.18633 217.18793 26.58487 93.302 201.663)" gradientUnits="userSpaceOnUse" spreadMethod="pad"><stop offset="0" style="stop-opacity:1;stop-color:#fff"/><stop offset="0.258423" style="stop-opacity:1;stop-color:#fff"/><stop offset="0.88048946" style="stop-opacity:1;stop-color:#aaabab"/><stop offset="0.904495" style="stop-opacity:1;stop-color:#aaabab"/><stop offset="1" style="stop-opacity:1;stop-color:#aaabab"/></radialGradient><radialGradient id="o" cx="0" cy="0" r="1" fx="0" fy="0" gradientTransform="matrix(26.68384 -217.99359 217.99521 26.68364 92.938 202.082)" gradientUnits="userSpaceOnUse" spreadMethod="pad"><stop offset="0" style="stop-opacity:1;stop-color:#fff"/><stop offset="0.258423" style="stop-opacity:1;stop-color:#fff"/><stop offset="0.88048946" style="stop-opacity:1;stop-color:#aaabab"/><stop offset="0.904495" style="stop-opacity:1;stop-color:#aaabab"/><stop offset="1" style="stop-opacity:1;stop-color:#aaabab"/></radialGradient><radialGradient id="p" cx="0" cy="0" r="1" fx="0" fy="0" gradientTransform="matrix(26.84734 -219.32877 219.3304 26.84712 89.691 201.744)" gradientUnits="userSpaceOnUse" spreadMethod="pad"><stop offset="0" style="stop-opacity:1;stop-color:#fff"/><stop offset="0.258423" style="stop-opacity:1;stop-color:#fff"/><stop offset="0.88048946" style="stop-opacity:1;stop-color:#aaabab"/><stop offset="0.904495" style="stop-opacity:1;stop-color:#aaabab"/><stop offset="1" style="stop-opacity:1;stop-color:#aaabab"/></radialGradient><radialGradient id="q" cx="0" cy="0" r="1" fx="0" fy="0" gradientTransform="matrix(26.63219 -217.57097 217.57259 26.63199 92.921 202.052)" gradientUnits="userSpaceOnUse" spreadMethod="pad"><stop offset="0" style="stop-opacity:1;stop-color:#fff"/><stop offset="0.258423" style="stop-opacity:1;stop-color:#fff"/><stop offset="0.88048946" style="stop-opacity:1;stop-color:#aaabab"/><stop offset="0.904495" style="stop-opacity:1;stop-color:#aaabab"/><stop offset="1" style="stop-opacity:1;stop-color:#aaabab"/></radialGradient><radialGradient id="r" cx="0" cy="0" r="1" fx="0" fy="0" gradientTransform="matrix(26.64395 -217.66695 217.66858 26.64375 92.727 202.004)" gradientUnits="userSpaceOnUse" spreadMethod="pad"><stop offset="0" style="stop-opacity:1;stop-color:#fff"/><stop offset="0.258423" style="stop-opacity:1;stop-color:#fff"/><stop offset="0.88048946" style="stop-opacity:1;stop-color:#aaabab"/><stop offset="0.904495" style="stop-opacity:1;stop-color:#aaabab"/><stop offset="1" style="stop-opacity:1;stop-color:#aaabab"/></radialGradient><radialGradient id="s" cx="0" cy="0" r="1" fx="0" fy="0" gradientTransform="matrix(26.62119 -217.4814 217.48303 26.62099 92.32 201.42)" gradientUnits="userSpaceOnUse" spreadMethod="pad"><stop offset="0" style="stop-opacity:1;stop-color:#fff"/><stop offset="0.258423" style="stop-opacity:1;stop-color:#fff"/><stop offset="0.88048946" style="stop-opacity:1;stop-color:#aaabab"/><stop offset="0.904495" style="stop-opacity:1;stop-color:#aaabab"/><stop offset="1" style="stop-opacity:1;stop-color:#aaabab"/></radialGradient><radialGradient id="t" cx="0" cy="0" r="1" fx="0" fy="0" gradientTransform="matrix(26.58267 -217.16635 217.16797 26.58246 93.594 201.712)" gradientUnits="userSpaceOnUse" spreadMethod="pad"><stop offset="0" style="stop-opacity:1;stop-color:#fff"/><stop offset="0.258423" style="stop-opacity:1;stop-color:#fff"/><stop offset="0.88048946" style="stop-opacity:1;stop-color:#aaabab"/><stop offset="0.904495" style="stop-opacity:1;stop-color:#aaabab"/><stop offset="1" style="stop-opacity:1;stop-color:#aaabab"/></radialGradient><radialGradient id="u" cx="0" cy="0" r="1" fx="0" fy="0" gradientTransform="matrix(-26.57439 -217.09888 -217.10049 26.57419 92.641 201.674)" gradientUnits="userSpaceOnUse" spreadMethod="pad"><stop offset="0" style="stop-opacity:1;stop-color:#fff"/><stop offset="0.258423" style="stop-opacity:1;stop-color:#fff"/><stop offset="0.88048946" style="stop-opacity:1;stop-color:#aaabab"/><stop offset="0.904495" style="stop-opacity:1;stop-color:#aaabab"/><stop offset="1" style="stop-opacity:1;stop-color:#aaabab"/></radialGradient><radialGradient id="v" cx="0" cy="0" r="1" fx="0" fy="0" gradientTransform="matrix(-26.6018 -217.323 -217.32462 26.60162 93.103 201.55)" gradientUnits="userSpaceOnUse" spreadMethod="pad"><stop offset="0" style="stop-opacity:1;stop-color:#fff"/><stop offset="0.258423" style="stop-opacity:1;stop-color:#fff"/><stop offset="0.88048946" style="stop-opacity:1;stop-color:#aaabab"/><stop offset="0.904495" style="stop-opacity:1;stop-color:#aaabab"/><stop offset="1" style="stop-opacity:1;stop-color:#aaabab"/></radialGradient><radialGradient id="w" cx="0" cy="0" r="1" fx="0" fy="0" gradientTransform="matrix(-26.60663 -217.36292 -217.36452 26.60643 92.52 201.595)" gradientUnits="userSpaceOnUse" spreadMethod="pad"><stop offset="0" style="stop-opacity:1;stop-color:#fff"/><stop offset="0.258423" style="stop-opacity:1;stop-color:#fff"/><stop offset="0.88048946" style="stop-opacity:1;stop-color:#aaabab"/><stop offset="0.904495" style="stop-opacity:1;stop-color:#aaabab"/><stop offset="1" style="stop-opacity:1;stop-color:#aaabab"/></radialGradient><radialGradient id="x" cx="0" cy="0" r="1" fx="0" fy="0" gradientTransform="matrix(-26.82597 -219.15434 -219.15598 26.82578 92.61 203.056)" gradientUnits="userSpaceOnUse" spreadMethod="pad"><stop offset="0" style="stop-opacity:1;stop-color:#fff"/><stop offset="0.258423" style="stop-opacity:1;stop-color:#fff"/><stop offset="0.88048946" style="stop-opacity:1;stop-color:#aaabab"/><stop offset="0.904495" style="stop-opacity:1;stop-color:#aaabab"/><stop offset="1" style="stop-opacity:1;stop-color:#aaabab"/></radialGradient><radialGradient id="y" cx="0" cy="0" r="1" fx="0" fy="0" gradientTransform="matrix(-26.44406 -216.03461 -216.03622 26.44388 93.725 200.84)" gradientUnits="userSpaceOnUse" spreadMethod="pad"><stop offset="0" style="stop-opacity:1;stop-color:#fff"/><stop offset="0.258423" style="stop-opacity:1;stop-color:#fff"/><stop offset="0.88048946" style="stop-opacity:1;stop-color:#aaabab"/><stop offset="0.904495" style="stop-opacity:1;stop-color:#aaabab"/><stop offset="1" style="stop-opacity:1;stop-color:#aaabab"/></radialGradient><radialGradient id="z" cx="0" cy="0" r="1" fx="0" fy="0" gradientTransform="matrix(-26.31082 -214.94533 -214.94695 26.31062 92.781 200.078)" gradientUnits="userSpaceOnUse" spreadMethod="pad"><stop offset="0" style="stop-opacity:1;stop-color:#fff"/><stop offset="0.258423" style="stop-opacity:1;stop-color:#fff"/><stop offset="0.88048946" style="stop-opacity:1;stop-color:#aaabab"/><stop offset="0.904495" style="stop-opacity:1;stop-color:#aaabab"/><stop offset="1" style="stop-opacity:1;stop-color:#aaabab"/></radialGradient><radialGradient id="A" cx="0" cy="0" r="1" fx="0" fy="0" gradientTransform="matrix(-26.62483 -217.51074 -217.51236 26.62463 92.962 201.9)" gradientUnits="userSpaceOnUse" spreadMethod="pad"><stop offset="0" style="stop-opacity:1;stop-color:#fff"/><stop offset="0.258423" style="stop-opacity:1;stop-color:#fff"/><stop offset="0.88048946" style="stop-opacity:1;stop-color:#aaabab"/><stop offset="0.904495" style="stop-opacity:1;stop-color:#aaabab"/><stop offset="1" style="stop-opacity:1;stop-color:#aaabab"/></radialGradient><radialGradient id="B" cx="0" cy="0" r="1" fx="0" fy="0" gradientTransform="matrix(-26.64264 -217.65694 -217.65854 26.64244 93.27 201.807)" gradientUnits="userSpaceOnUse" spreadMethod="pad"><stop offset="0" style="stop-opacity:1;stop-color:#fff"/><stop offset="0.258423" style="stop-opacity:1;stop-color:#fff"/><stop offset="0.88048946" style="stop-opacity:1;stop-color:#aaabab"/><stop offset="0.904495" style="stop-opacity:1;stop-color:#aaabab"/><stop offset="1" style="stop-opacity:1;stop-color:#aaabab"/></radialGradient><radialGradient id="C" cx="0" cy="0" r="1" fx="0" fy="0" gradientTransform="matrix(-26.45424 -216.11713 -216.11874 26.45404 93.528 200.76)" gradientUnits="userSpaceOnUse" spreadMethod="pad"><stop offset="0" style="stop-opacity:1;stop-color:#fff"/><stop offset="0.258423" style="stop-opacity:1;stop-color:#fff"/><stop offset="0.88048946" style="stop-opacity:1;stop-color:#aaabab"/><stop offset="0.904495" style="stop-opacity:1;stop-color:#aaabab"/><stop offset="1" style="stop-opacity:1;stop-color:#aaabab"/></radialGradient><radialGradient id="D" cx="0" cy="0" r="1" fx="0" fy="0" gradientTransform="matrix(-26.60565 -217.35446 -217.35606 26.60545 92.738 201.712)" gradientUnits="userSpaceOnUse" spreadMethod="pad"><stop offset="0" style="stop-opacity:1;stop-color:#fff"/><stop offset="0.258423" style="stop-opacity:1;stop-color:#fff"/><stop offset="0.88048946" style="stop-opacity:1;stop-color:#aaabab"/><stop offset="0.904495" style="stop-opacity:1;stop-color:#aaabab"/><stop offset="1" style="stop-opacity:1;stop-color:#aaabab"/></radialGradient><radialGradient id="E" cx="0" cy="0" r="1" fx="0" fy="0" gradientTransform="matrix(-26.62338 -217.49895 -217.50055 26.62318 93.27 202.013)" gradientUnits="userSpaceOnUse" spreadMethod="pad"><stop offset="0" style="stop-opacity:1;stop-color:#fff"/><stop offset="0.258423" style="stop-opacity:1;stop-color:#fff"/><stop offset="0.88048946" style="stop-opacity:1;stop-color:#aaabab"/><stop offset="0.904495" style="stop-opacity:1;stop-color:#aaabab"/><stop offset="1" style="stop-opacity:1;stop-color:#aaabab"/></radialGradient><radialGradient id="F" cx="0" cy="0" r="1" fx="0" fy="0" gradientTransform="matrix(219.67693 0 0 219.67526 93.486 202.513)" gradientUnits="userSpaceOnUse" spreadMethod="pad"><stop offset="0" style="stop-opacity:1;stop-color:#fff"/><stop offset="0.258423" style="stop-opacity:1;stop-color:#fff"/><stop offset="0.88048946" style="stop-opacity:1;stop-color:#aaabab"/><stop offset="0.904495" style="stop-opacity:1;stop-color:#aaabab"/><stop offset="1" style="stop-opacity:1;stop-color:#aaabab"/></radialGradient><radialGradient id="G" cx="0" cy="0" r="1" fx="0" fy="0" gradientTransform="matrix(219.10104 0 0 219.09944 93.26 201.47)" gradientUnits="userSpaceOnUse" spreadMethod="pad"><stop offset="0" style="stop-opacity:1;stop-color:#fff"/><stop offset="0.258423" style="stop-opacity:1;stop-color:#fff"/><stop offset="0.88048946" style="stop-opacity:1;stop-color:#aaabab"/><stop offset="0.904495" style="stop-opacity:1;stop-color:#aaabab"/><stop offset="1" style="stop-opacity:1;stop-color:#aaabab"/></radialGradient><radialGradient id="H" cx="0" cy="0" r="1" fx="0" fy="0" gradientTransform="matrix(220.9539 0 0 220.95227 93.147 201.856)" gradientUnits="userSpaceOnUse" spreadMethod="pad"><stop offset="0" style="stop-opacity:1;stop-color:#fff"/><stop offset="0.258423" style="stop-opacity:1;stop-color:#fff"/><stop offset="0.88048946" style="stop-opacity:1;stop-color:#aaabab"/><stop offset="0.904495" style="stop-opacity:1;stop-color:#aaabab"/><stop offset="1" style="stop-opacity:1;stop-color:#aaabab"/></radialGradient><radialGradient id="I" cx="0" cy="0" r="1" fx="0" fy="0" gradientTransform="matrix(219.36278 0 0 219.36113 92.946 201.5)" gradientUnits="userSpaceOnUse" spreadMethod="pad"><stop offset="0" style="stop-opacity:1;stop-color:#fff"/><stop offset="0.258423" style="stop-opacity:1;stop-color:#fff"/><stop offset="0.88048946" style="stop-opacity:1;stop-color:#aaabab"/><stop offset="0.904495" style="stop-opacity:1;stop-color:#aaabab"/><stop offset="1" style="stop-opacity:1;stop-color:#aaabab"/></radialGradient><radialGradient id="J" cx="0" cy="0" r="1" fx="0" fy="0" gradientTransform="matrix(217.57939 0 0 217.57776 92.963 201.712)" gradientUnits="userSpaceOnUse" spreadMethod="pad"><stop offset="0" style="stop-opacity:1;stop-color:#fff"/><stop offset="0.258423" style="stop-opacity:1;stop-color:#fff"/><stop offset="0.88048946" style="stop-opacity:1;stop-color:#aaabab"/><stop offset="0.904495" style="stop-opacity:1;stop-color:#aaabab"/><stop offset="1" style="stop-opacity:1;stop-color:#aaabab"/></radialGradient><radialGradient id="K" cx="0" cy="0" r="1" fx="0" fy="0" gradientTransform="matrix(220.22865 0 0 220.227 92.98 201.639)" gradientUnits="userSpaceOnUse" spreadMethod="pad"><stop offset="0" style="stop-opacity:1;stop-color:#fff"/><stop offset="0.258423" style="stop-opacity:1;stop-color:#fff"/><stop offset="0.88048946" style="stop-opacity:1;stop-color:#aaabab"/><stop offset="0.904495" style="stop-opacity:1;stop-color:#aaabab"/><stop offset="1" style="stop-opacity:1;stop-color:#aaabab"/></radialGradient><radialGradient id="L" cx="0" cy="0" r="1" fx="0" fy="0" gradientTransform="matrix(220.16324 0 0 220.16159 93.226 201.31)" gradientUnits="userSpaceOnUse" spreadMethod="pad"><stop offset="0" style="stop-opacity:1;stop-color:#fff"/><stop offset="0.258423" style="stop-opacity:1;stop-color:#fff"/><stop offset="0.88048946" style="stop-opacity:1;stop-color:#aaabab"/><stop offset="0.904495" style="stop-opacity:1;stop-color:#aaabab"/><stop offset="1" style="stop-opacity:1;stop-color:#aaabab"/></radialGradient><radialGradient id="M" cx="0" cy="0" r="1" fx="0" fy="0" gradientTransform="matrix(218.79269 0 0 218.79108 93.037 201.391)" gradientUnits="userSpaceOnUse" spreadMethod="pad"><stop offset="0" style="stop-opacity:1;stop-color:#fff"/><stop offset="0.258423" style="stop-opacity:1;stop-color:#fff"/><stop offset="0.88048946" style="stop-opacity:1;stop-color:#aaabab"/><stop offset="0.904495" style="stop-opacity:1;stop-color:#aaabab"/><stop offset="1" style="stop-opacity:1;stop-color:#aaabab"/></radialGradient><radialGradient id="N" cx="0" cy="0" r="1" fx="0" fy="0" gradientTransform="matrix(218.80202 0 0 218.80038 93.36 201.652)" gradientUnits="userSpaceOnUse" spreadMethod="pad"><stop offset="0" style="stop-opacity:1;stop-color:#fff"/><stop offset="0.258423" style="stop-opacity:1;stop-color:#fff"/><stop offset="0.88048946" style="stop-opacity:1;stop-color:#aaabab"/><stop offset="0.904495" style="stop-opacity:1;stop-color:#aaabab"/><stop offset="1" style="stop-opacity:1;stop-color:#aaabab"/></radialGradient><radialGradient id="O" cx="0" cy="0" r="1" fx="0" fy="0" gradientTransform="matrix(218.49509 0 0 218.49344 93.011 201.207)" gradientUnits="userSpaceOnUse" spreadMethod="pad"><stop offset="0" style="stop-opacity:1;stop-color:#fff"/><stop offset="0.258423" style="stop-opacity:1;stop-color:#fff"/><stop offset="0.88048946" style="stop-opacity:1;stop-color:#aaabab"/><stop offset="0.904495" style="stop-opacity:1;stop-color:#aaabab"/><stop offset="1" style="stop-opacity:1;stop-color:#aaabab"/></radialGradient><radialGradient id="P" cx="0" cy="0" r="1" fx="0" fy="0" gradientTransform="matrix(221.33253 0 0 221.3309 91.895 201.94)" gradientUnits="userSpaceOnUse" spreadMethod="pad"><stop offset="0" style="stop-opacity:1;stop-color:#fff"/><stop offset="0.258423" style="stop-opacity:1;stop-color:#fff"/><stop offset="0.88048946" style="stop-opacity:1;stop-color:#aaabab"/><stop offset="0.904495" style="stop-opacity:1;stop-color:#aaabab"/><stop offset="1" style="stop-opacity:1;stop-color:#aaabab"/></radialGradient><radialGradient id="Q" cx="0" cy="0" r="1" fx="0" fy="0" gradientTransform="matrix(219.62885 0 0 219.6272 92.242 201.522)" gradientUnits="userSpaceOnUse" spreadMethod="pad"><stop offset="0" style="stop-opacity:1;stop-color:#fff"/><stop offset="0.258423" style="stop-opacity:1;stop-color:#fff"/><stop offset="0.88048946" style="stop-opacity:1;stop-color:#aaabab"/><stop offset="0.904495" style="stop-opacity:1;stop-color:#aaabab"/><stop offset="1" style="stop-opacity:1;stop-color:#aaabab"/></radialGradient><radialGradient id="R" cx="0" cy="0" r="1" fx="0" fy="0" gradientTransform="matrix(218.6499 0 0 218.64825 93.252 201.454)" gradientUnits="userSpaceOnUse" spreadMethod="pad"><stop offset="0" style="stop-opacity:1;stop-color:#fff"/><stop offset="0.258423" style="stop-opacity:1;stop-color:#fff"/><stop offset="0.88048946" style="stop-opacity:1;stop-color:#aaabab"/><stop offset="0.904495" style="stop-opacity:1;stop-color:#aaabab"/><stop offset="1" style="stop-opacity:1;stop-color:#aaabab"/></radialGradient><radialGradient id="S" cx="0" cy="0" r="1" fx="0" fy="0" gradientTransform="matrix(217.11385 0 0 217.11221 93.952 201.49)" gradientUnits="userSpaceOnUse" spreadMethod="pad"><stop offset="0" style="stop-opacity:1;stop-color:#fff"/><stop offset="0.258423" style="stop-opacity:1;stop-color:#fff"/><stop offset="0.88048946" style="stop-opacity:1;stop-color:#aaabab"/><stop offset="0.904495" style="stop-opacity:1;stop-color:#aaabab"/><stop offset="1" style="stop-opacity:1;stop-color:#aaabab"/></radialGradient><radialGradient id="T" cx="0" cy="0" r="1" fx="0" fy="0" gradientTransform="matrix(219.4623 0 0 219.46066 92.54 201.516)" gradientUnits="userSpaceOnUse" spreadMethod="pad"><stop offset="0" style="stop-opacity:1;stop-color:#fff"/><stop offset="0.258423" style="stop-opacity:1;stop-color:#fff"/><stop offset="0.88048946" style="stop-opacity:1;stop-color:#aaabab"/><stop offset="0.904495" style="stop-opacity:1;stop-color:#aaabab"/><stop offset="1" style="stop-opacity:1;stop-color:#aaabab"/></radialGradient><radialGradient id="U" cx="0" cy="0" r="1" fx="0" fy="0" gradientTransform="matrix(219.38452 0 0 219.38289 92.674 201.914)" gradientUnits="userSpaceOnUse" spreadMethod="pad"><stop offset="0" style="stop-opacity:1;stop-color:#fff"/><stop offset="0.258423" style="stop-opacity:1;stop-color:#fff"/><stop offset="0.88048946" style="stop-opacity:1;stop-color:#aaabab"/><stop offset="0.904495" style="stop-opacity:1;stop-color:#aaabab"/><stop offset="1" style="stop-opacity:1;stop-color:#aaabab"/></radialGradient><radialGradient id="V" cx="0" cy="0" r="1" fx="0" fy="0" gradientTransform="matrix(219.03992 0 0 219.0383 92.75 201.408)" gradientUnits="userSpaceOnUse" spreadMethod="pad"><stop offset="0" style="stop-opacity:1;stop-color:#fff"/><stop offset="0.258423" style="stop-opacity:1;stop-color:#fff"/><stop offset="0.88048946" style="stop-opacity:1;stop-color:#aaabab"/><stop offset="0.904495" style="stop-opacity:1;stop-color:#aaabab"/><stop offset="1" style="stop-opacity:1;stop-color:#aaabab"/></radialGradient><radialGradient id="W" cx="0" cy="0" r="1" fx="0" fy="0" gradientTransform="matrix(218.93098 0 0 218.92934 92.802 201.386)" gradientUnits="userSpaceOnUse" spreadMethod="pad"><stop offset="0" style="stop-opacity:1;stop-color:#fff"/><stop offset="0.258423" style="stop-opacity:1;stop-color:#fff"/><stop offset="0.88048946" style="stop-opacity:1;stop-color:#aaabab"/><stop offset="0.904495" style="stop-opacity:1;stop-color:#aaabab"/><stop offset="1" style="stop-opacity:1;stop-color:#aaabab"/></radialGradient><radialGradient id="X" cx="0" cy="0" r="1" fx="0" fy="0" gradientTransform="matrix(238.91071 0 0 238.90894 93.935 201.943)" gradientUnits="userSpaceOnUse" spreadMethod="pad"><stop offset="0" style="stop-opacity:1;stop-color:#96b2dd"/><stop offset="0.21818246" style="stop-opacity:1;stop-color:#0f579d"/><stop offset="0.247192" style="stop-opacity:1;stop-color:#0f579d"/><stop offset="0.567413" style="stop-opacity:1;stop-color:#004989"/><stop offset="0.90541913" style="stop-opacity:1;stop-color:#000039"/><stop offset="1" style="stop-opacity:1;stop-color:#000039"/></radialGradient><radialGradient id="Y" cx="0" cy="0" r="1" fx="0" fy="0" gradientTransform="matrix(239.16652 0 0 239.16476 93.801 202.202)" gradientUnits="userSpaceOnUse" spreadMethod="pad"><stop offset="0" style="stop-opacity:1;stop-color:#96b2dd"/><stop offset="0.21818246" style="stop-opacity:1;stop-color:#0f579d"/><stop offset="0.247192" style="stop-opacity:1;stop-color:#0f579d"/><stop offset="0.567413" style="stop-opacity:1;stop-color:#004989"/><stop offset="0.90541913" style="stop-opacity:1;stop-color:#000039"/><stop offset="1" style="stop-opacity:1;stop-color:#000039"/></radialGradient><radialGradient id="Z" cx="0" cy="0" r="1" fx="0" fy="0" gradientTransform="matrix(237.58162 0 0 237.57986 93.388 200.76)" gradientUnits="userSpaceOnUse" spreadMethod="pad"><stop offset="0" style="stop-opacity:1;stop-color:#96b2dd"/><stop offset="0.21818246" style="stop-opacity:1;stop-color:#0f579d"/><stop offset="0.247192" style="stop-opacity:1;stop-color:#0f579d"/><stop offset="0.567413" style="stop-opacity:1;stop-color:#004989"/><stop offset="0.90541913" style="stop-opacity:1;stop-color:#000039"/><stop offset="1" style="stop-opacity:1;stop-color:#000039"/></radialGradient><radialGradient id="aa" cx="0" cy="0" r="1" fx="0" fy="0" gradientTransform="matrix(239.57989 0 0 239.57809 94.008 202.178)" gradientUnits="userSpaceOnUse" spreadMethod="pad"><stop offset="0" style="stop-opacity:1;stop-color:#96b2dd"/><stop offset="0.21818246" style="stop-opacity:1;stop-color:#0f579d"/><stop offset="0.247192" style="stop-opacity:1;stop-color:#0f579d"/><stop offset="0.567413" style="stop-opacity:1;stop-color:#004989"/><stop offset="0.90541913" style="stop-opacity:1;stop-color:#000039"/><stop offset="1" style="stop-opacity:1;stop-color:#000039"/></radialGradient><linearGradient id="c" x1="0" x2="1" y1="0" y2="0" gradientTransform="scale(255.70122) rotate(-45 1.175 .156)" gradientUnits="userSpaceOnUse" spreadMethod="pad"><stop offset="0" style="stop-opacity:1;stop-color:#c9cacb"/><stop offset="0.74781451" style="stop-opacity:1;stop-color:#595757"/><stop offset="1" style="stop-opacity:1;stop-color:#595757"/></linearGradient><linearGradient id="e" x1="0" x2="1" y1="0" y2="0" gradientTransform="matrix(-124.2099 124.20918 -124.20918 -124.21002 211.553 72.616)" gradientUnits="userSpaceOnUse" spreadMethod="pad"><stop offset="0" style="stop-opacity:1;stop-color:#fff"/><stop offset="0.74781451" style="stop-opacity:1;stop-color:#595757"/><stop offset="1" style="stop-opacity:1;stop-color:#595757"/></linearGradient></defs><path d="M8.654 142.328C8.654 68.985 68.13 9.52 141.47 9.52c73.329 0 132.796 59.465 132.796 132.808 0 73.352-59.467 132.814-132.796 132.814-73.34 0-132.816-59.462-132.816-132.814" style="fill:url(#a);stroke:none" transform="matrix(1.33333 0 0 -1.33333 -10.855 367.541)"/><path d="M8.141 142.328C8.141 68.818 67.95 9.011 141.47 9.011c73.508 0 133.311 59.807 133.311 133.317 0 73.515-59.803 133.328-133.311 133.328-73.52 0-133.329-59.813-133.329-133.328m1.022 0c0 72.95 59.349 132.302 132.307 132.302 72.941 0 132.285-59.352 132.285-132.302 0-72.95-59.344-132.297-132.285-132.297-72.958 0-132.307 59.347-132.307 132.297" style="fill:url(#b);stroke:none" transform="matrix(1.33333 0 0 -1.33333 -10.855 367.541)"/><path d="M13.907 142.33c0-70.447 57.121-127.56 127.556-127.56 70.437 0 127.557 57.113 127.557 127.56 0 70.452-57.12 127.563-127.557 127.563-70.435 0-127.556-57.111-127.556-127.563" style="fill:url(#c);stroke:none" transform="matrix(1.33333 0 0 -1.33333 -10.855 367.541)"/><path d="M15.475 142.33c0-69.583 56.421-125.987 125.988-125.987 69.578 0 125.985 56.404 125.985 125.987 0 69.591-56.407 125.998-125.985 125.998-69.567 0-125.988-56.407-125.988-125.998" style="fill:url(#d);stroke:none" transform="matrix(1.33333 0 0 -1.33333 -10.855 367.541)"/><path d="M53.545 142.33c0-48.556 39.363-87.93 87.925-87.93 48.55 0 87.907 39.374 87.907 87.93 0 48.557-39.357 87.932-87.907 87.932-48.562 0-87.925-39.375-87.925-87.932" style="fill:url(#e);stroke:none" transform="matrix(1.33333 0 0 -1.33333 -10.855 367.541)"/><path d="M55.702 142.408c0-47.361 38.406-85.768 85.768-85.768 47.355 0 85.745 38.407 85.745 85.768 0 47.365-38.39 85.771-85.745 85.771-47.362 0-85.768-38.406-85.768-85.771" style="fill:url(#f);stroke:none" transform="matrix(1.33333 0 0 -1.33333 -10.855 367.541)"/><path d="M179.444 181.255v-4.23h-51.406v4.23h-12.252v-4.23H83.522v-10.882h9.706c-6.728-2.943-11.072-9.362-11.072-18.742 0-12.577 11.836-19.745 21.366-19.745h35.586v3.821h10.078v-3.821h50.89v10.877h-8.381v27.61h8.381v10.882h-8.381v4.23z" style="fill:url(#g);stroke:none" transform="matrix(1.33333 0 0 -1.33333 -10.855 367.541)"/><path d="M175.548 185.406v-4.419h-42.995v4.383l-20.651.036v-4.419H79.214V162.47s2.101.009 3.168.009c-3.257-4.123-4.85-9.019-4.85-15.378 0-5.147 2.23-10.828 5.962-15.191 4.354-5.635 11.997-9.151 19.921-9.151h39.979v3.998h2.27v-3.899l59.087-.099-.036 19.183h-8.504v20.083h8.54l.036 18.962h-8.286v4.455zm1.053-5.473v4.419c.973 0 17.871.031 18.841.036v-4.455h8.288c0-.964-.033-15.892-.037-16.857h-8.536v-22.191h8.507c0-.965.028-16.103.028-17.076-1.03.006-55.951.097-56.974.097v3.899h-4.374v-3.996h-38.929c-7.609 0-14.926 3.361-19.102 8.764-3.596 4.2-5.725 9.623-5.725 14.528 0 6.523 1.66 11.47 5.222 15.566l.762.873-4.308-.014v16.407h32.694v4.417c.969 0 17.568-.03 18.538-.036v-4.381z" style="fill:url(#h);stroke:none" transform="matrix(1.33333 0 0 -1.33333 -10.855 367.541)"/><path d="M170.37 169.973v-20.326c-1.655.791-3.628 1.251-5.755 1.251-5.954 0-10.697-3.577-10.73-7.965.033-4.389 4.776-7.971 10.73-7.971 5.963 0 10.692 3.582 10.733 7.971h.007v12.956h4.225v2.867h-4.225v4.135h4.225v2.875h-4.225v4.207zm-11.507-27.04c0 3.251 2.725 5.204 5.752 5.204 3.037 0 5.755-1.953 5.755-5.204 0-3.22-2.718-5.2-5.755-5.2-3.027 0-5.752 1.98-5.752 5.2m-34.037 27.04v-23.427h4.979v12.21h4.064v2.87h-4.064v8.347zm-17.062-2.866h9.75v2.867h-9.75zm41.425-5.765c0-4.472 4.272-8.083 9.896-8.083 5.645 0 9.905 3.611 9.905 8.083 0 4.453-4.26 8.078-9.905 8.078-5.624 0-9.896-3.625-9.896-8.078m5.085 0c0 3.352 2.156 5.603 4.811 5.603 2.66 0 4.822-2.251 4.822-5.603 0-3.437-2.159-5.622-4.822-5.622-2.641 0-4.811 2.185-4.811 5.622m-50.805 4.571v-2.875h3.454c-2.085-1.276-3.377-3.236-3.377-5.448 0-3.846 3.911-6.969 9.083-6.969 5.17 0 9.081 3.123 9.081 6.969 0 2.212-1.294 4.172-3.371 5.448h3.459v2.875zm4.749-8.323c0 2.862 1.973 5.033 4.411 5.033 2.441 0 4.41-2.171 4.41-5.033 0-2.915-1.969-5.038-4.41-5.038-2.438 0-4.411 2.123-4.411 5.038m-.864-9.635v-6.651c0-3.34 2.174-5.374 5.7-5.374l17.08-.022v2.877h-17.371v9.17z" style="fill:url(#i);stroke:none" transform="matrix(1.33333 0 0 -1.33333 -10.855 367.541)"/><path d="M243.497 123.643c-.039-3.429 2.101-6.22 2.101-6.22s2.197 2.75 2.23 6.178c.038 3.417-2.091 6.223-2.091 6.223s-2.201-2.759-2.24-6.181" style="fill:url(#j);stroke:none" transform="matrix(1.33333 0 0 -1.33333 -10.855 367.541)"/><path d="M248.364 115.55c-4.128-4.683-4.977-10.676-4.977-10.676s5.846 1.578 9.984 6.25c4.131 4.677 4.741 10.094 4.741 10.094s-5.61-.996-9.748-5.668" style="fill:url(#k);stroke:none" transform="matrix(1.33333 0 0 -1.33333 -10.855 367.541)"/><path d="M236.946 114.227c1.195-5.162 4.826-8.721 4.826-8.721s1.485 4.31.283 9.457c-1.19 5.166-4.896 8.008-4.896 8.008s-1.4-3.593-.213-8.744" style="fill:url(#l);stroke:none" transform="matrix(1.33333 0 0 -1.33333 -10.855 367.541)"/><path d="M242.479 98.926c-4.879-3.89-6.758-9.653-6.758-9.653s6.035.551 10.914 4.438c4.85 3.852 6.408 9.01 6.435 9.098v.002c-.062 0-5.725-.018-10.591-3.885" style="fill:url(#m);stroke:none" transform="matrix(1.33333 0 0 -1.33333 -10.855 367.541)"/><path d="M231.003 99.725c.276-5.285 3.244-9.429 3.244-9.429s2.205 3.984 1.923 9.286c-.284 5.277-3.447 8.721-3.447 8.721s-1.996-3.296-1.72-8.578" style="fill:url(#n);stroke:none" transform="matrix(1.33333 0 0 -1.33333 -10.855 367.541)"/><path d="M211.96 57.574c-5.743-1.318-9.701-5.452-9.701-5.452s5.365-1.999 11.09-.692c5.747 1.323 9.186 5.121 9.186 5.121s-2.958 1.417-6.988 1.417a16.15 16.15 0 0 1-3.587-.394" style="fill:url(#o);stroke:none" transform="matrix(1.33333 0 0 -1.33333 -10.855 367.541)"/><path d="M201.963 63.532c-2.071-4.995-1.173-10.104-1.173-10.104s3.769 2.7 5.858 7.677c2.066 4.97.677 9.539.677 9.539s-3.288-2.157-5.362-7.112" style="fill:url(#p);stroke:none" transform="matrix(1.33333 0 0 -1.33333 -10.855 367.541)"/><path d="M197.171 47.589c-5.574 0-10.084-2.956-10.084-2.956s4.546-3.015 10.154-3.03c5.615-.014 9.63 2.784 9.63 2.784s-3.998 3.197-9.606 3.202z" style="fill:url(#q);stroke:none" transform="matrix(1.33333 0 0 -1.33333 -10.855 367.541)"/><path d="M189.44 56.018c-3.138-4.381-3.423-9.563-3.423-9.563s4.301 1.772 7.425 6.161c3.156 4.369 2.835 9.124 2.835 9.124s-3.697-1.345-6.837-5.722" style="fill:url(#r);stroke:none" transform="matrix(1.33333 0 0 -1.33333 -10.855 367.541)"/><path d="M173.953 47.264c-.701-1.403-1.011-2.841-.946-4.046-.696.976-1.804 1.952-3.215 2.641-2.945 1.445-7.123 1.748-7.971.016-.866-1.746 1.921-4.87 4.863-6.315 1.416-.693 2.844-1.003 4.06-.95-.991-.685-1.953-1.805-2.638-3.208-1.455-2.949-1.767-7.118-.022-7.959 1.732-.877 4.858 1.917 6.3 4.85.69 1.416 1.005 2.848.948 4.058.695-.993 1.811-1.946 3.228-2.64 2.925-1.451 7.103-1.751 7.964-.019.852 1.734-1.919 4.865-4.873 6.317-1.409.695-2.835.985-4.049.931.996.703 1.944 1.812 2.638 3.22 1.444 2.94 1.761 7.118.02 7.976a1.6 1.6 0 0 1-.714.154c-1.777 0-4.324-2.446-5.593-5.026m-1.345-10.654a3.537 3.537 0 0 0-1.626 4.738 3.549 3.549 0 0 0 4.756 1.615 3.55 3.55 0 0 0 1.62-4.752 3.544 3.544 0 0 0-3.179-1.972c-.53 0-1.068.12-1.571.371" style="fill:url(#s);stroke:none" transform="matrix(1.33333 0 0 -1.33333 -10.855 367.541)"/><path d="M224.701 91.841c-1.964-.282-2.996-4.426-2.515-7.752.227-1.586.796-2.969 1.552-3.954-1.161.442-2.652.592-4.236.357-3.321-.465-7.023-2.619-6.735-4.573.274-1.962 4.426-2.993 7.747-2.507 1.595.219 2.972.791 3.967 1.544-.442-1.164-.596-2.66-.367-4.251.468-3.309 2.617-6.996 4.585-6.715 1.957.28 2.983 4.425 2.508 7.741-.23 1.585-.801 2.977-1.548 3.968 1.155-.448 2.654-.6 4.226-.378 3.329.478 7.028 2.639 6.737 4.595-.281 1.95-4.431 2.977-7.747 2.504-1.596-.225-2.975-.794-3.957-1.543.433 1.153.596 2.649.373 4.232-.471 3.204-2.475 6.75-4.376 6.75-.073 0-.145-.006-.214-.018m-1.591-14.442c-.288 1.981 1.095 3.813 3.069 4.116a3.631 3.631 0 0 0 4.097-3.088 3.62 3.62 0 0 0-3.068-4.108 3.63 3.63 0 0 0-4.098 3.08" style="fill:url(#t);stroke:none" transform="matrix(1.33333 0 0 -1.33333 -10.855 367.541)"/><path d="M35.893 123.601c.047-3.428 2.234-6.179 2.234-6.179s2.143 2.792 2.105 6.221c-.044 3.422-2.24 6.181-2.24 6.181s-2.129-2.806-2.099-6.223" style="fill:url(#u);stroke:none" transform="matrix(1.33333 0 0 -1.33333 -10.855 367.541)"/><path d="M30.365 111.124c4.094-4.631 9.879-6.222 9.981-6.249l.001.005c-.03.202-.928 6.069-4.993 10.67-4.132 4.672-9.735 5.668-9.735 5.668s.602-5.417 4.746-10.094" style="fill:url(#v);stroke:none" transform="matrix(1.33333 0 0 -1.33333 -10.855 367.541)"/><path d="M41.67 114.963c-1.2-5.147.275-9.457.275-9.457s3.644 3.559 4.838 8.721c1.186 5.151-.213 8.744-.213 8.744s-3.714-2.842-4.9-8.008" style="fill:url(#w);stroke:none" transform="matrix(1.33333 0 0 -1.33333 -10.855 367.541)"/><path d="M30.656 102.808c.037-.125 1.602-5.259 6.423-9.097 4.894-3.887 10.924-4.438 10.924-4.438s-1.881 5.763-6.759 9.653c-4.851 3.855-10.502 3.884-10.588 3.885z" style="fill:url(#x);stroke:none" transform="matrix(1.33333 0 0 -1.33333 -10.855 367.541)"/><path d="M47.55 99.582c-.269-5.302 1.929-9.286 1.929-9.286s2.965 4.143 3.245 9.429c.273 5.282-1.715 8.578-1.715 8.578s-3.169-3.444-3.459-8.721" style="fill:url(#y);stroke:none" transform="matrix(1.33333 0 0 -1.33333 -10.855 367.541)"/><path d="M61.194 56.551s3.434-3.798 9.18-5.121c5.732-1.307 11.09.692 11.09.692s-3.955 4.134-9.695 5.452c-1.25.285-2.464.394-3.589.394-4.027 0-6.986-1.417-6.986-1.417" style="fill:url(#z);stroke:none" transform="matrix(1.33333 0 0 -1.33333 -10.855 367.541)"/><path d="M77.078 61.105c2.083-4.977 5.852-7.677 5.852-7.677s.901 5.109-1.173 10.104c-2.067 4.955-5.36 7.112-5.36 7.112s-1.387-4.569.681-9.539" style="fill:url(#A);stroke:none" transform="matrix(1.33333 0 0 -1.33333 -10.855 367.541)"/><path d="M86.465 47.589c-5.615-.005-9.608-3.202-9.608-3.202s4.01-2.798 9.629-2.784c5.603.015 10.156 3.03 10.156 3.03s-4.513 2.956-10.089 2.956z" style="fill:url(#B);stroke:none" transform="matrix(1.33333 0 0 -1.33333 -10.855 367.541)"/><path d="M90.275 52.616c3.118-4.363 7.382-6.14 7.43-6.161l.001.003c-.008.135-.318 5.238-3.42 9.56-3.148 4.377-6.839 5.722-6.839 5.722s-.322-4.755 2.828-9.124" style="fill:url(#C);stroke:none" transform="matrix(1.33333 0 0 -1.33333 -10.855 367.541)"/><path d="M103.469 52.136c-1.74-.858-1.435-5.036.015-7.976.696-1.408 1.647-2.517 2.638-3.22-1.216.054-2.651-.236-4.055-.931-2.947-1.452-5.719-4.583-4.867-6.317.862-1.732 5.031-1.432 7.967.019 1.422.694 2.531 1.647 3.222 2.64-.055-1.21.246-2.642.946-4.058 1.45-2.933 4.568-5.727 6.315-4.85 1.732.841 1.423 5.01-.03 7.959-.688 1.403-1.644 2.523-2.638 3.208 1.216-.053 2.647.257 4.057.95 2.936 1.445 5.727 4.569 4.868 6.315-.852 1.732-5.028 1.429-7.971-.016-1.422-.689-2.53-1.665-3.218-2.641.059 1.205-.245 2.643-.941 4.046-1.277 2.58-3.816 5.026-5.597 5.026a1.59 1.59 0 0 1-.711-.154m2.896-13.925a3.562 3.562 0 0 0 1.614 4.752 3.554 3.554 0 0 0 4.762-1.615c.861-1.748.144-3.883-1.614-4.738a3.554 3.554 0 0 0-4.762 1.601" style="fill:url(#D);stroke:none" transform="matrix(1.33333 0 0 -1.33333 -10.855 367.541)"/><path d="M54.437 85.109c-.234-1.583-.065-3.079.366-4.232-.977.748-2.359 1.318-3.958 1.543-3.312.473-7.455-.554-7.742-2.504-.288-1.956 3.41-4.117 6.731-4.595 1.576-.222 3.073-.07 4.231.378-.753-.991-1.314-2.383-1.555-3.968-.471-3.316.558-7.461 2.527-7.741 1.954-.281 4.106 3.406 4.583 6.715.225 1.59.073 3.087-.373 4.251.984-.753 2.376-1.325 3.963-1.544 3.323-.486 7.469.545 7.754 2.507.274 1.954-3.421 4.108-6.734 4.573-1.587.235-3.078.085-4.245-.357.76.985 1.325 2.368 1.551 3.954.482 3.326-.553 7.47-2.511 7.752a1.282 1.282 0 0 1-.212.018c-1.9 0-3.913-3.546-4.376-6.75m2.075-10.79a3.618 3.618 0 0 0-3.062 4.108c.272 1.981 2.113 3.365 4.099 3.088a3.647 3.647 0 0 0 3.063-4.116 3.625 3.625 0 0 0-3.583-3.113c-.169 0-.34.009-.517.033" style="fill:url(#E);stroke:none" transform="matrix(1.33333 0 0 -1.33333 -10.855 367.541)"/><path d="M137.011 33.979a4.455 4.455 0 0 1 4.464-4.456 4.446 4.446 0 0 1 4.446 4.456 4.445 4.445 0 0 1-4.446 4.447 4.454 4.454 0 0 1-4.464-4.447" style="fill:url(#F);stroke:none" transform="matrix(1.33333 0 0 -1.33333 -10.855 367.541)"/><path d="m25.168 160.199 8.968-1.16-.579-4.431-8.903 1.16-.406-4.244 22.054-2.893.334 4.24-9.134 1.212.583 4.432 9.138-1.208.786 4.25-22.056 2.887z" style="fill:url(#G);stroke:none" transform="matrix(1.33333 0 0 -1.33333 -10.855 367.541)"/><path d="m29.37 177.998 19.708-11.883 1.176 4.062-4.453 2.541 1.267 3.751 5.065-.722 1.495 3.905-22.645 3.062zm9.338-1.571c-1.142.619-3.2 1.673-4.519 2.356l.034.095c1.457-.286 3.625-.713 4.964-.93l4.594-.791-1.005-2.967z" style="fill:url(#H);stroke:none" transform="matrix(1.33333 0 0 -1.33333 -10.855 367.541)"/><path d="m40.923 203.377 13.449-7.18-.036-.061-16.148 2.556-1.806-3.444 19.358-11.08 1.704 3.382-13.148 7.214.188-.086 15.636-2.452 2.138 3.316-19.327 11.042z" style="fill:url(#I);stroke:none" transform="matrix(1.33333 0 0 -1.33333 -10.855 367.541)"/><path d="m53.722 220.658 3.169-4.414a60.676 60.676 0 0 1 2.975-3.866l-.033-.045a63.938 63.938 0 0 1-4.308 2.152l-5.112 2.315-2.826-3.543 13.49-5.107 6.472-5.51 2.787 3.258-6.61 5.612-7.012 12.374z" style="fill:url(#J);stroke:none" transform="matrix(1.33333 0 0 -1.33333 -10.855 367.541)"/><path d="m63.848 230.688 10.802-20.26 3.069 2.887-2.576 4.58 3.02 2.56 4.074-3.344 3.37 2.574-17.842 14.308zm7.135-5.949c-.647 1.117-1.871 3.075-2.649 4.344l.077.07c1.1-1.004 2.741-2.48 3.775-3.357l3.521-3.057-2.396-2.021z" style="fill:url(#K);stroke:none" transform="matrix(1.33333 0 0 -1.33333 -10.855 367.541)"/><path d="m86.929 246.568 2.387-4.321c1.964-3.545 4.073-6.748 5.313-8.709l-.061-.029c-1.472 1.382-3.778 3.31-5.175 4.488l-7.212 5.952-3.344-2.026 10.781-19.462 3.221 1.971-2.459 4.433c-2.157 3.888-3.94 6.781-5.1 8.675l.054.039c1.396-1.507 3.626-3.445 5.157-4.726l7.111-5.766 3.502 1.712-10.819 19.482z" style="fill:url(#L);stroke:none" transform="matrix(1.33333 0 0 -1.33333 -10.855 367.541)"/><path d="M107.929 255.228c-4.445-1.43-7.781-5.998-5.425-13.653 1.092-3.628 3.059-6.426 5.414-7.594 1.848-.948 3.875-1.053 6.272-.284 1.521.486 3.333 1.478 4.111 2.143l-3.588 11.202-5.633-1.807 1.067-3.334 1.868.598 1.629-5.069c-.144-.11-.41-.231-.78-.348-1.899-.606-4.438.561-6.057 5.602-1.751 5.478-.154 8.081 2.61 8.971 1.035.331 1.867.393 2.55.299l-.409 3.747a5.772 5.772 0 0 1-.652.039c-.753 0-1.773-.138-2.977-.512" style="fill:url(#M);stroke:none" transform="matrix(1.33333 0 0 -1.33333 -10.855 367.541)"/><path d="M140.03 245.613c.123-3.33-.738-4.242-1.973-4.289-1.112-.036-2.128.912-2.241 4.139l-.476 14.363-4.281-.325.46-13.465c.189-5.517 2.09-8.626 6.696-8.465 4.239.15 6.26 3.291 6.069 8.932l-.459 13.419-4.3.029z" style="fill:url(#N);stroke:none" transform="matrix(1.33333 0 0 -1.33333 -10.855 367.541)"/><path d="m150.832 237.325 3.751-.44 2.27 14.944.058-.011 3.009-15.865 3.804-.794 3.733 21.928-3.711.773-2.101-15.001-.059.01-3.187 15.885-3.818.483z" style="fill:url(#O);stroke:none" transform="matrix(1.33333 0 0 -1.33333 -10.855 367.541)"/><path d="m169.903 233.445 4.058-1.383 7.142 21.028-4.054 1.375z" style="fill:url(#P);stroke:none" transform="matrix(1.33333 0 0 -1.33333 -10.855 367.541)"/><path d="m182.719 228.393 4.224-2.165 14.566 17.269-4.057 2.342-10.216-14.225-.053.031 5.486 16.655-4.304 1.947z" style="fill:url(#Q);stroke:none" transform="matrix(1.33333 0 0 -1.33333 -10.855 367.541)"/><path d="m195.105 221.268 7.953-5.993 2.29 3.076-4.538 3.423 3.579 4.742 4.021-3.026 2.139 2.842-4.015 3.031 3.047 4.039 4.227-3.181 2.316 3.042-7.643 5.76z" style="fill:url(#R);stroke:none" transform="matrix(1.33333 0 0 -1.33333 -10.855 367.541)"/><path d="m207.785 210.774 3.059-3.014 6.434 5.984.423-.457c.971-1.055.867-2.085-.873-4.245-1.549-1.888-2.846-3.757-3.12-4.369l2.937-3.578c.33.843 2.023 3.417 3.53 5.393 1.435 1.918 1.956 3.423 1.358 4.927l.057.039c2.295-.928 4.624-.326 6.349 1.277 1.394 1.286 2.204 2.581 2.168 4.375-.017 1.944-1.112 3.77-2.711 5.493-1.112 1.194-2.332 2.364-3.313 3.306zm12.428 4.663-.52.549 4.811 4.481c.223-.103.536-.394.78-.661 1.266-1.457.797-2.919-.564-4.188-.763-.706-1.646-1.099-2.497-1.099-.728 0-1.429.289-2.01.918" style="fill:url(#S);stroke:none" transform="matrix(1.33333 0 0 -1.33333 -10.855 367.541)"/><path d="M232.231 206.496c-1.675-1.082-3.008-3.298-2.918-6.819-.009-2.21-.135-3.46-1.48-4.328-1.208-.786-2.62-.518-3.716 1.182-.676 1.047-1.183 2.506-1.244 3.507l-3.448-1.474c.03-.832.588-2.541 1.541-4.018 2.334-3.625 6.166-4.695 9.549-2.517 1.95 1.254 3.231 3.364 3.143 6.759-.084 2.782.14 3.706 1.239 4.41.989.64 2.406.499 3.387-1.038.678-1.049.89-2.041.898-2.769l3.469 1.416c-.023.763-.441 2.132-1.212 3.344-1.548 2.403-3.583 3.467-5.61 3.467-1.236 0-2.475-.398-3.598-1.122" style="fill:url(#T);stroke:none" transform="matrix(1.33333 0 0 -1.33333 -10.855 367.541)"/><path d="m227.369 183.9 1.798-3.886 20.052 9.344-1.797 3.883z" style="fill:url(#U);stroke:none" transform="matrix(1.33333 0 0 -1.33333 -10.855 367.541)"/><path d="m248.515 180.567 1.24-3.688-17.463-5.366 1.255-4.09 17.464 5.368 1.02-3.785 3.785 1.163-3.52 11.554z" style="fill:url(#V);stroke:none" transform="matrix(1.33333 0 0 -1.33333 -10.855 367.541)"/><path d="m244.183 157.747-8.362-1.035.558-4.258 8.5 1.064 13.92-3.252-.346 4.377-10.332 1.119-.011.063 9.726 3.847-.75 4.535z" style="fill:url(#W);stroke:none" transform="matrix(1.33333 0 0 -1.33333 -10.855 367.541)"/><path d="M126.881 104.255a7.432 7.432 0 0 1-2.403-1.142 5.91 5.91 0 0 1-1.748-1.982c-.459-.793-.68-1.768-.68-2.885 0-.937.199-1.737.583-2.399a4.989 4.989 0 0 1 1.493-1.625c.607-.432 1.298-.73 2.056-.934a9.092 9.092 0 0 1 2.216-.294c.921 0 1.793.166 2.639.498.836.332 1.674.733 2.517 1.203-.204-3.492-1.862-5.244-4.969-5.244-.314 0-.681.03-1.076.087a5.273 5.273 0 0 0-1.183.286 5.101 5.101 0 0 0-1.09.513 2.748 2.748 0 0 0-.81.739c-.076.113-.13.254-.155.403a1.724 1.724 0 0 0-.051.398l-.362.202-1.788-3.648.24-.234a.85.85 0 0 0 .562.206c.16 0 .372-.09.639-.254a9.04 9.04 0 0 1 1.011-.553c.41-.222.941-.39 1.573-.542.618-.14 1.387-.213 2.282-.213 1.292 0 2.468.222 3.513.645a7.55 7.55 0 0 1 2.71 1.903c.753.824 1.332 1.825 1.74 2.984.411 1.154.617 2.46.617 3.902 0 1.228-.187 2.342-.549 3.368a7.718 7.718 0 0 1-1.515 2.636 6.825 6.825 0 0 1-2.353 1.724c-.911.413-1.918.61-3.013.61a9.68 9.68 0 0 1-2.646-.358m.97-8.373a3.77 3.77 0 0 0-1.229.494 2.581 2.581 0 0 0-.858.924c-.205.391-.312.866-.312 1.444 0 .574.107 1.048.312 1.436.209.389.501.696.858.922.361.23.77.405 1.229.495a6.8 6.8 0 0 0 1.411.156c.478 0 .936-.058 1.406-.156.459-.09.868-.265 1.228-.495.363-.226.644-.533.856-.922.204-.388.304-.862.304-1.436 0-.578-.1-1.053-.304-1.444a2.55 2.55 0 0 0-.856-.924 3.756 3.756 0 0 0-1.228-.494 6.793 6.793 0 0 0-2.817 0" style="fill:url(#X);stroke:none" transform="matrix(1.33333 0 0 -1.33333 -10.855 367.541)"/><path d="M159.314 104.255a7.492 7.492 0 0 1-2.411-1.142 5.967 5.967 0 0 1-1.745-1.982c-.458-.793-.679-1.768-.679-2.885 0-.937.197-1.737.581-2.399a5.067 5.067 0 0 1 1.497-1.625c.603-.432 1.297-.73 2.053-.934a9.172 9.172 0 0 1 2.223-.294c.912 0 1.792.166 2.636.498a20.95 20.95 0 0 1 2.513 1.203c-.202-3.492-1.852-5.244-4.961-5.244-.319 0-.681.03-1.078.087a5.334 5.334 0 0 0-1.184.286c-.394.126-.75.303-1.09.513-.337.207-.6.456-.808.739a.914.914 0 0 0-.155.403 2.094 2.094 0 0 0-.055.398l-.356.202-1.795-3.648.241-.234a.863.863 0 0 0 .566.206c.155 0 .366-.09.633-.254.252-.168.589-.35 1.007-.553.417-.222.95-.39 1.578-.542.626-.14 1.395-.213 2.281-.213 1.294 0 2.471.222 3.517.645a7.572 7.572 0 0 1 2.704 1.903c.758.824 1.344 1.825 1.739 2.984.419 1.154.618 2.46.618 3.902 0 1.228-.177 2.342-.538 3.368a7.98 7.98 0 0 1-1.52 2.636 6.79 6.79 0 0 1-2.356 1.724c-.913.413-1.919.61-3.012.61a9.64 9.64 0 0 1-2.644-.358m.972-8.373a3.79 3.79 0 0 0-1.239.494 2.716 2.716 0 0 0-.853.924c-.199.391-.311.866-.311 1.444 0 .574.112 1.048.311 1.436.211.389.51.696.853.922.364.23.773.405 1.239.495.458.098.919.156 1.406.156.483 0 .937-.058 1.402-.156.458-.09.87-.265 1.234-.495.358-.226.642-.533.857-.922.203-.388.309-.862.309-1.436 0-.578-.106-1.053-.309-1.444a2.623 2.623 0 0 0-.857-.924 3.834 3.834 0 0 0-1.234-.494 6.686 6.686 0 0 0-1.402-.147c-.487 0-.948.049-1.406.147" style="fill:url(#Y);stroke:none" transform="matrix(1.33333 0 0 -1.33333 -10.855 367.541)"/><path d="M142.796 104.231c-.816-.249-1.474-.526-1.991-.846-.522-.313-.912-.595-1.184-.856-.271-.25-.45-.381-.555-.381a.933.933 0 0 0-.506.167l-.354-.299 2.396-3.399.258.208a1.89 1.89 0 0 0-.087.354c-.012.108-.03.215-.03.312 0 .262.149.529.454.796.291.26.682.518 1.128.73.459.224.976.403 1.53.526.562.138 1.109.21 1.645.21.46 0 .917-.036 1.358-.087a4.12 4.12 0 0 0 1.221-.323c.371-.152.669-.362.888-.637.23-.283.345-.629.345-1.074 0-.457-.135-.853-.39-1.155a2.814 2.814 0 0 0-.931-.733 4.159 4.159 0 0 0-1.168-.364 6.806 6.806 0 0 0-1.109-.099c-.484 0-.921.063-1.308.222-.386.138-.599.434-.643.874h-.359v-4.515h.359c.124.4.353.646.701.742.35.108.766.152 1.25.152.334 0 .738-.026 1.208-.083a5.097 5.097 0 0 0 1.317-.343 3.06 3.06 0 0 0 1.051-.76c.276-.318.423-.745.423-1.286 0-.551-.157-.998-.452-1.352a3.464 3.464 0 0 0-1.083-.812 5.094 5.094 0 0 0-1.365-.416 7.51 7.51 0 0 0-1.278-.125c-.454 0-1.016.084-1.692.213-.653.155-1.301.368-1.91.645a5.48 5.48 0 0 0-1.565 1.014c-.442.39-.663.858-.663 1.366v.226c0 .117.014.191.033.232l-.332.195-1.737-4.78.278-.09c.076.037.149.082.214.125.082.046.164.07.261.07.149 0 .436-.108.83-.311.387-.213.879-.45 1.475-.7.595-.252 1.275-.48 2.057-.661a10.864 10.864 0 0 1 2.521-.282c.787 0 1.643.073 2.541.222.904.143 1.737.423 2.486.863a5.798 5.798 0 0 1 1.895 1.744c.502.725.755 1.66.755 2.786 0 1.003-.273 1.824-.822 2.48a3.911 3.911 0 0 1-2.09 1.317v.066c.719.177 1.287.6 1.71 1.283.422.674.624 1.404.624 2.209 0 .856-.202 1.592-.609 2.205a4.816 4.816 0 0 1-1.581 1.487 7.09 7.09 0 0 1-2.135.863c-.786.175-1.561.247-2.339.247-1.156 0-2.135-.123-2.944-.382" style="fill:url(#Z);stroke:none" transform="matrix(1.33333 0 0 -1.33333 -10.855 367.541)"/><path d="M115.271 104.613v-.382c.222-.049.396-.115.528-.213.128-.08.187-.284.187-.584 0-.339-.108-.623-.346-.852a1.166 1.166 0 0 0-.852-.354c-.166 0-.327.039-.509.123-.185.065-.277.211-.277.406h-.353v-4.184h.353a.8.8 0 0 0 .31.413c.155.101.31.172.492.236.189.055.369.096.564.105.188.033.343.036.489.036V88.26c0-.382-.079-.625-.228-.748a.768.768 0 0 0-.524-.181v-.401h4.938v.401a.843.843 0 0 0-.543.181c-.155.123-.237.366-.237.748v15.232c0 .227.082.388.237.503.161.103.365.187.592.236v.382z" style="fill:url(#aa);stroke:none" transform="matrix(1.33333 0 0 -1.33333 -10.855 367.541)"/></svg>