<?xml version="1.0" encoding="utf-8"?>
<!-- Generator: Adobe Illustrator 26.0.3, SVG Export Plug-In . SVG Version: 6.00 Build 0)  -->
<svg version="1.0" id="Layer_1" xmlns="http://www.w3.org/2000/svg" xmlns:xlink="http://www.w3.org/1999/xlink" x="0px" y="0px"
	 viewBox="0 0 336 234" style="enable-background:new 0 0 336 234;" xml:space="preserve">
<style type="text/css">
	.st0{fill:#FFFFFF;}
	.st1{fill:#0C2069;}
</style>
<path class="st0" d="M117.5,81.2c0,28.4,23,51.5,51.4,51.5s51.5-23,51.5-51.4s-23-51.5-51.4-51.5c0,0,0,0,0,0
	C140.5,29.8,117.5,52.8,117.5,81.2"/>
<path class="st0" d="M117.9,81.2c0-28.2,22.8-51,51-51c28.2,0,51,22.8,51,51s-22.8,51-51,51C140.8,132.2,117.9,109.4,117.9,81.2"/>
<path class="st1" d="M182,64.5v1.7h-16.6v-1.7h-8v1.7h-12.6v7.2h1.2c-1.3,1.7-2,3.8-1.9,5.9c0.1,2.2,0.9,4.2,2.3,5.9
	c1.9,2.3,4.7,3.6,7.7,3.5h15.4v-1.6h0.9v1.5h22.8v-7.4h-3.3v-7.8h3.3v-7.3H190v-1.7L182,64.5z M189.7,64.8v1.7h3.2
	c0,0.4,0,6.1,0,6.5h-3.3v8.6h3.3v6.6c-0.4,0-21.6,0-22,0v-1.5h-1.7v1.5h-15c-2.8,0-5.6-1.2-7.4-3.4c-1.4-1.6-2.1-3.5-2.2-5.6
	c-0.1-2.2,0.6-4.3,2-6l0.3-0.3h-1.7v-6.4h12.6v-1.7c0.4,0,6.8,0,7.1,0v1.7h17.4v-1.7L189.7,64.8"/>
<path class="st1" d="M177.6,73.9c0.2-1-0.6-2-1.6-2.1c-1-0.2-2,0.6-2.1,1.6c0,0.2,0,0.4,0,0.5c-0.2,1,0.6,2,1.6,2.1
	c1,0.2,2-0.6,2.1-1.6C177.6,74.2,177.6,74.1,177.6,73.9 M159.5,75.3c0.1-0.9-0.6-1.8-1.5-1.9c-0.9-0.1-1.8,0.6-1.9,1.5
	c0,0.1,0,0.2,0,0.4c-0.1,0.9,0.6,1.8,1.5,1.9c0.9,0.1,1.8-0.6,1.9-1.5C159.5,75.6,159.5,75.5,159.5,75.3 M177.9,79
	c-1.1,0.1-1.9,1.1-1.8,2.2c0.1,1.1,1.1,1.9,2.2,1.8c1-0.1,1.8-1,1.8-2c0-1.1-1-2-2.1-2C177.9,79,177.9,79,177.9,79 M191.6,72v-4.2
	h-3.2v-1.6h-4.7v1.6h-19.8v-1.6H159v1.6h-12.4V72h3.7c-2.6,1.1-4.3,3.6-4.3,7.2c0,4.9,4.6,7.6,8.2,7.6H168v-1.4h3.9v1.5h19.6v-4.2
	h-3.2V72H191.6z M155.9,70.6h3.8v1.1h-3.8V70.6z M154.3,75.3c0-0.9,0.5-1.7,1.3-2.1h-1.4v-1.1h7.1v1.1H160c0.8,0.4,1.3,1.2,1.3,2.1
	c0,1.5-1.5,2.7-3.5,2.7S154.3,76.8,154.3,75.3 M164.6,83.7H158c-1.1,0.1-2.1-0.7-2.2-1.8c0-0.1,0-0.2,0-0.3V79h2.1v3.5h6.7
	L164.6,83.7z M166,74.9h-1.6v4.7h-1.9v-9h1.9v3.2h1.5V74.9z M171.9,73.9c0-1.7,1.6-3.1,3.8-3.1s3.8,1.4,3.8,3.1
	c0,1.7-1.6,3.1-3.8,3.1C173.6,77,171.9,75.6,171.9,73.9 M183.6,73.3H182v1.6h1.6V76H182v5l0,0c0,1.7-1.9,3.1-4.1,3.1
	c-2.3,0-4.1-1.4-4.1-3.1s1.8-3.1,4.1-3.1c0.8,0,1.5,0.2,2.2,0.5v-7.9h1.9v1.6h1.6L183.6,73.3z"/>
<path class="st1" d="M169.1,32.6c-26.8-0.1-48.7,21.6-48.8,48.4s21.6,48.7,48.4,48.8c26.8,0.1,48.7-21.6,48.8-48.4
	C217.6,54.6,196,32.7,169.1,32.6 M213.8,74.5l-3.7,1.5l0,0l4,0.4l0.1,1.7l-5.4-1.2l-3.3,0.4l-0.2-1.6l3.2-0.4l5-2.5L213.8,74.5z
	 M210,88.4c0,0.9-0.3,1.7-0.9,2.4c-0.5-0.7-0.8-1.5-0.8-2.4c0-0.9,0.4-1.7,0.9-2.4C209.7,86.7,210,87.6,210,88.4 M207.7,95.4
	c-0.9-0.9-1.5-2.1-1.9-3.4c-0.3-1.1-0.3-2.3,0.1-3.4c1,0.8,1.6,1.9,1.9,3.1C208,93,208,94.3,207.7,95.4 M204.8,101.3
	c-0.7-1.1-1.2-2.3-1.2-3.6c-0.1-1.1,0.1-2.3,0.7-3.3c0.8,0.9,1.3,2.1,1.3,3.4C205.6,99,205.3,100.2,204.8,101.3 M213.1,70.5
	l-1.5,0.4l-0.4-1.5l-6.7,2.1L204,70l6.7-2.1l-0.5-1.4l1.5-0.4L213.1,70.5z M210.5,63.1l-7.7,3.6l-0.7-1.5l7.7-3.6L210.5,63.1z
	 M168.8,115.1c-18.7-0.1-33.9-15.3-33.8-34.1c0.1-18.7,15.3-33.9,34.1-33.8c18.7,0.1,33.9,15.3,33.8,34.1c0,0,0,0,0,0
	C202.8,100.1,187.5,115.2,168.8,115.1C168.8,115.1,168.8,115.1,168.8,115.1 M194.1,112.5c-0.5,1.2-1.3,2.2-2.3,3
	c-0.2-1.3,0-2.7,0.4-3.9c0.4-1.1,1.1-2,2.1-2.8C194.7,110.1,194.6,111.4,194.1,112.5 M189,115.8c-0.7,1-1.7,1.8-2.9,2.4
	c0.1-1.3,0.6-2.6,1.3-3.7c0.7-1,1.6-1.7,2.6-2.2C190.1,113.6,189.7,114.8,189,115.8 M152.1,118.2c-1.1-0.5-2.1-1.4-2.9-2.4
	c-0.7-1-1.1-2.3-1.1-3.5c1.1,0.5,2,1.2,2.6,2.2C151.5,115.6,151.9,116.9,152.1,118.2 M146.4,115.5c-1-0.8-1.8-1.8-2.2-3
	c-0.5-1.2-0.6-2.4-0.3-3.7c0.9,0.7,1.6,1.7,2.1,2.8C146.4,112.8,146.6,114.2,146.4,115.5 M204,56.5c1.1-0.8,2.6-0.5,3.4,0.6
	c0.1,0.1,0.1,0.2,0.2,0.3c0.3,0.4,0.4,0.8,0.5,1.3l-1.4,0.5c0-0.4-0.1-0.7-0.3-1.1c-0.2-0.5-0.8-0.7-1.2-0.5c0,0-0.1,0-0.1,0
	c-0.4,0.3-0.5,0.6-0.5,1.7c0.1,1-0.3,2-1.2,2.6c-1.2,0.8-2.8,0.4-3.6-0.8c0-0.1-0.1-0.1-0.1-0.2c-0.3-0.5-0.5-1-0.6-1.5l1.3-0.6
	c0.1,0.5,0.2,0.9,0.5,1.3c0.4,0.7,1,0.8,1.4,0.5s0.6-0.8,0.6-1.7C202.8,58.1,203.2,57.1,204,56.5 M202.1,50.2c0.6,0.6,0.9,1.3,1,2.1
	c0,0.7-0.3,1.3-0.8,1.7c-0.6,0.6-1.6,0.8-2.4,0.5l0,0c0.2,0.6,0,1.2-0.5,1.9c-0.5,0.7-1,1.4-1.4,2.1l-1.1-1.4
	c0.4-0.6,0.8-1.2,1.2-1.7c0.7-0.8,0.7-1.2,0.3-1.6l-0.1-0.2l-2.5,2.4l-1.2-1.2l6.3-5.8C201.2,49.4,201.7,49.8,202.1,50.2
	 M197.7,46.2l-0.9,1.2l-1.6-1.2l-1.2,1.5l1.6,1.2l-0.8,1.1l-1.6-1.2l-1.4,1.8l1.8,1.3l-0.9,1.2l-3.1-2.3l5.1-6.8L197.7,46.2z
	 M187,39.6l1.7,0.8l-2.1,6.4l0,0l3.9-5.5l1.6,0.9l-5.6,6.7l-1.6-0.8L187,39.6z M182.6,37.9l1.6,0.5l-2.8,8.1l-1.6-0.5L182.6,37.9z
	 M174,36.1l1.5,0.2l1.2,6.1l0,0l0.8-5.8l1.4,0.3l-1.4,8.5l-1.5-0.3l-1.1-6.1l0,0l-0.9,5.7l-1.4-0.2L174,36.1z M166.6,35.9l0.2,5.5
	c0,1.2,0.4,1.6,0.9,1.6c0.4,0,0.8-0.4,0.8-1.7l-0.2-5.5h1.7L170,41c0.1,2.2-0.7,3.4-2.3,3.4c-1.6,0-2.5-1.1-2.6-3.3l-0.2-5.2
	L166.6,35.9z M156,37.7c0.4-0.2,0.9-0.2,1.4-0.2l0.2,1.4c-0.3,0-0.7,0-1,0.1c-1.1,0.4-1.7,1.4-1,3.5c0.6,1.9,1.6,2.4,2.4,2.2
	c0.1,0,0.2-0.1,0.3-0.1l-0.6-2l-0.7,0.2l-0.4-1.3l2.2-0.7l1.4,4.3c-0.5,0.4-1,0.6-1.6,0.8c-0.8,0.3-1.7,0.3-2.4-0.1
	c-1-0.7-1.8-1.7-2.1-3C153,40,154.3,38.2,156,37.7 M146.1,42l2.8,2.3c0.5,0.5,1.4,1.2,2,1.7l0,0c-0.5-0.8-1.3-2-2.1-3.4l-0.9-1.7
	l1.3-0.7l4.2,7.5l-1.4,0.7l-2.8-2.2c-0.7-0.6-1.4-1.2-2-1.8l0,0c0.4,0.7,1.1,1.9,2,3.4l1,1.7l-1.2,0.8l-4.2-7.5L146.1,42z
	 M140.5,45.8l6.9,5.5l-1.3,1l-1.6-1.3l-1.1,1l1,1.8l-1.2,1.1l-4.2-7.8L140.5,45.8z M133.8,52.5l2,0.9c0.5,0.2,1.1,0.5,1.7,0.8l0,0
	c-0.4-0.5-0.8-1-1.2-1.5l-1.2-1.7l1.1-1.3l2.8,4.8l2.5,2.2l-1.1,1.3l-2.5-2.1l-5.2-2L133.8,52.5z M129.1,59.5l6.2,1l0,0l-5.2-2.8
	l0.8-1.2l7.5,4.3l-0.8,1.3l-6-1h-0.1l5.1,2.8l-0.7,1.3l-7.5-4.3L129.1,59.5z M126.3,65.7l8.7,1.2l-0.6,1.5l-2-0.3l-0.4,1.4l1.7,1
	l-0.4,1.5l-7.6-4.6L126.3,65.7z M134.7,97.7c-0.1,1.3-0.5,2.6-1.3,3.6c-0.5-1.1-0.8-2.4-0.7-3.6c0.1-1.2,0.5-2.4,1.3-3.4
	C134.5,95.4,134.7,96.5,134.7,97.7 M123.9,76l3.4,0.4l0.2-1.7l-3.5-0.5l0.3-1.6l8.5,1.1l-0.3,1.6l-3.5-0.4l-0.2,1.7l3.5,0.5
	l-0.1,1.6l-8.5-1.1L123.9,76z M132.4,92c-0.3,1.3-1,2.4-1.9,3.4c-0.3-1.2-0.4-2.4-0.1-3.7c0.3-1.2,0.9-2.3,1.9-3.1
	C132.7,89.7,132.7,90.9,132.4,92 M129.9,88.4c0,0.9-0.3,1.7-0.8,2.4c-0.5-0.7-0.8-1.5-0.9-2.4c0-0.9,0.3-1.7,0.8-2.4
	C129.5,86.7,129.8,87.5,129.9,88.4 M124.2,89.3c1.5,0.3,2.8,1.1,3.8,2.2c1,1.2,1.7,2.6,1.9,4.1c-1.5-0.5-2.8-1.3-3.8-2.4
	C125.1,92.1,124.5,90.8,124.2,89.3 M126.2,96.5c1.5,0.1,2.9,0.6,4.1,1.5c1.2,1,2.1,2.3,2.6,3.7c-1.5-0.2-3-0.8-4.2-1.7
	C127.5,99.1,126.7,97.9,126.2,96.5 M137.4,108.8c-0.2,1.3-1,2.7-1.8,2.6c-0.8-0.1-1.1-1.7-1-3c0.1-0.6,0.3-1.1,0.6-1.5
	c-0.5,0.2-1.1,0.2-1.6,0.1c-1.3-0.2-2.7-1-2.6-1.8c0.1-0.8,1.7-1.2,3-1c0.5,0.1,1.1,0.3,1.5,0.6c-0.2-0.5-0.2-1.1-0.1-1.6
	c0.2-1.3,1-2.7,1.8-2.6s1.2,1.7,1,3c-0.1,0.5-0.3,1.1-0.6,1.5c0.5-0.2,1.1-0.2,1.6-0.1c1.3,0.2,2.7,1,2.6,1.8c-0.1,0.8-1.7,1.2-3,1
	c-0.5-0.1-1.1-0.3-1.5-0.6C137.4,107.7,137.4,108.3,137.4,108.8 M141.5,116.3c-1.3-0.3-2.6-1-3.5-2c1.3-0.6,2.7-0.7,4.1-0.4
	c1.4,0.4,2.7,1.1,3.8,2.1C144.4,116.5,142.9,116.6,141.5,116.3 M147.7,120c-1.3,0-2.6-0.4-3.7-1c1.1-0.8,2.4-1.2,3.7-1.2
	c1.4,0,2.7,0.4,3.9,1.1C150.5,119.6,149.1,120,147.7,120 M159.5,120.8c-0.5,0.3-1,0.4-1.6,0.4c0.4,0.3,0.8,0.7,1,1.2
	c0.6,1.1,0.7,2.8,0,3.1c-0.7,0.3-1.9-0.8-2.4-1.9c-0.2-0.5-0.4-1-0.4-1.6c-0.3,0.4-0.7,0.8-1.2,1c-1.1,0.6-2.8,0.7-3.1,0
	s0.8-1.9,1.9-2.4c0.5-0.2,1-0.4,1.6-0.4c-0.4-0.3-0.8-0.8-1-1.2c-0.6-1.1-0.7-2.7,0-3.1s1.9,0.7,2.4,1.9c0.3,0.5,0.4,1,0.4,1.6
	c0.3-0.4,0.8-0.8,1.2-1c1.1-0.6,2.8-0.7,3.1,0C161.7,119.1,160.6,120.3,159.5,120.8 M168.9,124.7c-0.9,0-1.7-0.8-1.7-1.7
	s0.8-1.7,1.7-1.7c0.9,0,1.7,0.8,1.7,1.7c0,0,0,0,0,0C170.6,124,169.9,124.7,168.9,124.7 M186.3,123.1c-0.3,0.7-1.9,0.6-3.1,0
	c-0.5-0.2-0.9-0.6-1.2-1c0,0.5-0.1,1.1-0.4,1.6c-0.5,1.1-1.8,2.2-2.4,1.9s-0.6-1.9,0-3.1c0.2-0.5,0.6-0.9,1-1.2
	c-0.5,0-1.1-0.1-1.6-0.4c-1.2-0.6-2.2-1.8-1.9-2.4s1.9-0.5,3.1,0c0.5,0.2,0.9,0.6,1.2,1c0-0.5,0.1-1.1,0.4-1.6
	c0.6-1.1,1.8-2.2,2.4-1.9s0.6,1.9,0,3.1c-0.2,0.5-0.6,0.9-1,1.2c0.5,0,1.1,0.1,1.6,0.4C185.6,121.2,186.6,122.4,186.3,123.1
	 M190.4,120.1c-1.4,0-2.7-0.4-3.9-1.2c1.2-0.7,2.5-1.1,3.9-1.1c1.3,0,2.6,0.5,3.7,1.2C193,119.7,191.7,120.1,190.4,120.1
	 M196.6,116.3c-1.4,0.3-2.9,0.2-4.3-0.3c1-1,2.3-1.7,3.8-2.1c1.4-0.3,2.8-0.1,4.1,0.4C199.2,115.3,198,116,196.6,116.3 M204.6,107.1
	c-0.5,0.1-1.1,0-1.6-0.1c0.3,0.4,0.5,1,0.6,1.5c0.2,1.3-0.2,2.9-1,3s-1.6-1.3-1.8-2.6c-0.1-0.5,0-1.1,0.1-1.6
	c-0.5,0.3-1,0.5-1.5,0.6c-1.3,0.2-2.9-0.2-3-1s1.3-1.6,2.6-1.8c0.6-0.1,1.1,0,1.6,0.1c-0.3-0.5-0.5-1-0.6-1.5c-0.2-1.3,0.2-2.9,1-3
	s1.6,1.3,1.8,2.6c0.1,0.5,0.1,1.1-0.1,1.6c0.5-0.3,1-0.5,1.5-0.6c1.3-0.2,2.9,0.2,3,1S205.9,106.9,204.6,107.1 M209.5,100
	c-1.2,0.9-2.7,1.5-4.2,1.7c0.5-1.4,1.4-2.7,2.6-3.7c1.2-0.9,2.6-1.4,4.1-1.5C211.5,97.9,210.7,99.1,209.5,100 M212.1,93.3
	c-1.1,1.1-2.4,2-3.9,2.4c0.3-1.5,0.9-2.9,1.9-4.1c1-1.1,2.3-1.9,3.8-2.2C213.7,90.8,213.1,92.2,212.1,93.3 M156,119.6
	c-0.7,0.3-0.9,1.2-0.6,1.8c0.3,0.7,1.2,0.9,1.8,0.6c0.7-0.3,0.9-1.1,0.6-1.8C157.5,119.5,156.7,119.2,156,119.6
	C156,119.5,156,119.5,156,119.6 M137.7,106.3c0.1-0.8-0.4-1.5-1.2-1.6c-0.8-0.1-1.5,0.4-1.6,1.2c-0.1,0.7,0.4,1.4,1.2,1.6
	C136.9,107.6,137.6,107,137.7,106.3 M127.6,67.1L127.6,67.1l1.8,0.9l1.6,0.9l0.4-1.1l-1.8-0.3C129,67.4,128.1,67.2,127.6,67.1
	 M182.2,119.5c-0.7-0.3-1.5-0.1-1.8,0.6c0,0,0,0,0,0c-0.3,0.7-0.1,1.5,0.6,1.8c0,0,0.1,0,0.1,0c0.7,0.3,1.5,0.1,1.8-0.6
	C183.2,120.7,182.9,119.9,182.2,119.5 M142.2,49c-0.4-0.3-1-0.9-1.4-1.3h-0.1c0.3,0.5,0.8,1.2,1,1.7l0.9,1.5l0.9-0.8L142.2,49z
	 M201.6,104.7c-0.8,0.1-1.3,0.8-1.2,1.6s0.8,1.3,1.6,1.2c0.8-0.1,1.3-0.8,1.2-1.6c0,0,0,0,0,0C203.1,105.1,202.4,104.6,201.6,104.7
	 M201.1,52.9c0.5-0.3,0.6-1,0.3-1.5c0,0-0.1-0.1-0.1-0.1c-0.1-0.1-0.2-0.2-0.3-0.3l-1.9,1.7l0.2,0.2
	C199.8,53.5,200.5,53.5,201.1,52.9C201,53,201,52.9,201.1,52.9"/>
<path class="st1" d="M162.1,100.6l0.2,0.1c0,0,0,0.1,0,0.2c0,0.1,0,0.1,0,0.2c0.1,0.1,0.2,0.2,0.3,0.3c0.1,0.1,0.3,0.2,0.4,0.2
	c0.1,0.1,0.3,0.1,0.4,0.1c0.1,0,0.3,0,0.4,0.1c1.2,0,1.8-0.7,1.9-2c-0.3,0.2-0.7,0.3-1,0.5c-0.3,0.1-0.7,0.2-1,0.2
	c-0.3,0-0.6,0-0.9-0.1c-0.3-0.1-0.6-0.2-0.8-0.4c-0.2-0.2-0.4-0.4-0.6-0.6c-0.2-0.3-0.2-0.6-0.2-0.9c0-0.4,0.1-0.8,0.2-1.1
	c0.2-0.3,0.4-0.6,0.7-0.8c0.3-0.2,0.6-0.3,0.9-0.4c0.3-0.1,0.7-0.1,1-0.1c0.4,0,0.9,0,1.3,0.2c0.3,0.2,0.6,0.4,0.9,0.7
	c0.3,0.3,0.5,0.6,0.6,1c0.2,0.4,0.2,0.9,0.2,1.3c0,0.5-0.1,1-0.2,1.5c-0.2,0.4-0.4,0.8-0.7,1.2c-0.3,0.3-0.6,0.6-1,0.7
	c-0.4,0.2-0.9,0.3-1.4,0.2c-0.3,0-0.6,0-0.9-0.1c-0.4-0.1-0.7-0.2-1-0.4c-0.1-0.1-0.2-0.1-0.2-0.1c-0.1,0-0.2,0-0.2,0.1l-0.1-0.1
	L162.1,100.6z M163.7,96.9c-0.2,0-0.3,0.1-0.5,0.2c-0.1,0.1-0.3,0.2-0.3,0.4c-0.1,0.2-0.1,0.4-0.1,0.6c0,0.2,0,0.4,0.1,0.6
	c0.1,0.1,0.2,0.3,0.3,0.4c0.1,0.1,0.3,0.2,0.5,0.2c0.2,0,0.4,0.1,0.6,0.1c0.2,0,0.4,0,0.5-0.1c0.2,0,0.3-0.1,0.5-0.2
	c0.1-0.1,0.3-0.2,0.3-0.4c0.1-0.2,0.1-0.4,0.1-0.6c0-0.2,0-0.4-0.1-0.6c-0.1-0.1-0.2-0.3-0.3-0.4c-0.1-0.1-0.3-0.2-0.5-0.2
	c-0.2,0-0.4-0.1-0.5-0.1C164,96.8,163.9,96.9,163.7,96.9"/>
<path class="st1" d="M174.7,100.6l0.1,0.1c0,0,0,0.1,0,0.2c0,0.1,0,0.1,0.1,0.2c0.1,0.1,0.2,0.2,0.3,0.3c0.1,0.1,0.3,0.1,0.4,0.2
	c0.1,0.1,0.3,0.1,0.5,0.1c0.1,0,0.3,0,0.4,0.1c1.2,0,1.8-0.7,1.9-2c-0.3,0.2-0.7,0.3-1,0.5c-0.3,0.1-0.7,0.2-1,0.2
	c-0.3,0-0.6,0-0.8-0.1c-0.3-0.1-0.6-0.2-0.8-0.4c-0.2-0.2-0.4-0.4-0.6-0.6c-0.2-0.3-0.2-0.6-0.2-0.9c0-0.4,0.1-0.8,0.3-1.1
	c0.2-0.3,0.4-0.6,0.7-0.8c0.3-0.2,0.6-0.4,0.9-0.4c0.3-0.1,0.7-0.1,1-0.1c0.4,0,0.8,0.1,1.2,0.2c0.3,0.2,0.7,0.4,0.9,0.7
	c0.3,0.3,0.5,0.6,0.6,1c0.2,0.4,0.2,0.9,0.2,1.3c0,0.5-0.1,1-0.2,1.5c-0.1,0.4-0.4,0.8-0.7,1.2c-0.3,0.3-0.6,0.6-1,0.7
	c-0.4,0.2-0.9,0.3-1.3,0.2c-0.3,0-0.6,0-0.9-0.1c-0.2-0.1-0.4-0.1-0.6-0.2c-0.1-0.1-0.3-0.1-0.4-0.2c-0.1-0.1-0.2-0.1-0.2-0.1
	c-0.1,0-0.2,0-0.2,0.1L174,102L174.7,100.6z M176.2,96.9c-0.2,0-0.3,0.1-0.5,0.2c-0.1,0.1-0.3,0.2-0.3,0.4c-0.1,0.2-0.1,0.4-0.1,0.6
	c0,0.2,0,0.4,0.1,0.6c0.1,0.1,0.2,0.3,0.3,0.4c0.1,0.1,0.3,0.2,0.5,0.2c0.2,0,0.4,0.1,0.6,0.1c0.2,0,0.4,0,0.5-0.1
	c0.2,0,0.3-0.1,0.5-0.2c0.1-0.1,0.3-0.2,0.3-0.4c0.1-0.2,0.1-0.4,0.1-0.6c0-0.2,0-0.4-0.1-0.6c-0.1-0.1-0.2-0.3-0.3-0.4
	c-0.1-0.1-0.3-0.2-0.5-0.2c-0.2,0-0.4-0.1-0.5-0.1C176.6,96.9,176.4,96.9,176.2,96.9"/>
<path class="st1" d="M167.7,96.8l0.2-0.1c0,0,0.1,0.1,0.2,0.1c0,0,0.1,0,0.2-0.2c0.1-0.1,0.3-0.2,0.4-0.3c0.3-0.1,0.5-0.2,0.8-0.3
	c0.4-0.1,0.7-0.2,1.1-0.2c0.3,0,0.6,0,0.9,0.1c0.3,0.1,0.6,0.2,0.8,0.3c0.2,0.1,0.4,0.3,0.6,0.6c0.2,0.3,0.2,0.5,0.2,0.8
	c0,0.3-0.1,0.6-0.2,0.9c-0.1,0.2-0.4,0.4-0.7,0.5l0,0c0.7,0.2,1.2,0.8,1.1,1.5c0,0.4-0.1,0.7-0.3,1.1c-0.2,0.3-0.4,0.5-0.7,0.7
	c-0.3,0.2-0.6,0.3-0.9,0.3c-0.3,0.1-0.7,0.1-1,0.1c-0.3,0-0.7,0-1-0.1c-0.3-0.1-0.5-0.1-0.8-0.3c-0.2-0.1-0.4-0.2-0.6-0.3
	c-0.1-0.1-0.2-0.1-0.3-0.1c0,0-0.1,0-0.1,0h-0.1h-0.1l0.7-1.8l0.1,0.1c0,0,0,0,0,0.1v0.1c0,0.2,0.1,0.4,0.3,0.5
	c0.2,0.2,0.4,0.3,0.6,0.4c0.2,0.1,0.5,0.2,0.7,0.2c0.2,0,0.4,0.1,0.7,0.1c0.2,0,0.3,0,0.5,0c0.2,0,0.4-0.1,0.5-0.2
	c0.2-0.1,0.3-0.2,0.4-0.3c0.1-0.2,0.2-0.3,0.2-0.5c0-0.2,0-0.3-0.1-0.5c-0.1-0.1-0.2-0.2-0.4-0.3c-0.2-0.1-0.3-0.1-0.5-0.1
	c-0.2,0-0.3,0-0.5,0c-0.2,0-0.3,0-0.5,0.1c-0.1,0-0.2,0.2-0.3,0.3h-0.2v-1.8h0.2c0,0.2,0.1,0.3,0.2,0.3c0.2,0.1,0.3,0.1,0.5,0.1
	c0.1,0,0.3,0,0.4,0c0.2,0,0.3-0.1,0.5-0.2c0.1-0.1,0.3-0.2,0.3-0.3c0.1-0.1,0.2-0.3,0.2-0.4c0-0.2,0-0.3-0.1-0.4
	c-0.1-0.1-0.2-0.2-0.3-0.2c-0.1-0.1-0.3-0.1-0.5-0.1h-0.5c-0.2,0-0.4,0-0.6,0.1c-0.2,0-0.4,0.1-0.6,0.2c-0.2,0.1-0.3,0.2-0.4,0.3
	c-0.1,0.1-0.2,0.2-0.2,0.3c0,0,0,0.1,0,0.1c0,0,0,0.1,0,0.1l-0.1,0.1L167.7,96.8z"/>
<path class="st1" d="M158.8,102.4c0.1,0,0.1,0,0.2-0.1c0.1-0.1,0.1-0.2,0.1-0.3v-4.3c-0.1,0-0.1,0-0.2,0c-0.1,0-0.1,0-0.2,0
	c-0.1,0-0.1,0-0.2,0.1c-0.1,0-0.1,0.1-0.1,0.2h-0.1v-1.6h0.1c0,0,0,0.1,0.1,0.1c0.1,0,0.1,0.1,0.2,0.1c0.1,0,0.2-0.1,0.3-0.2
	c0.1-0.1,0.1-0.2,0.1-0.3c0-0.1-0.1-0.1-0.1-0.2c-0.1,0-0.1-0.1-0.2-0.1v-0.2h1.9v0.2c-0.1,0-0.2,0.1-0.2,0.1
	c-0.1,0-0.1,0.1-0.1,0.2v5.9c0,0.1,0,0.2,0.1,0.3c0.1,0.1,0.1,0.1,0.2,0.1v0.1h-1.9V102.4z"/>
<polygon class="st1" points="89.9,191 89.9,196.2 92.6,196.2 92.6,191 95.2,191 95.2,204.1 92.6,204.1 92.6,198.6 89.9,198.6 
	89.9,204.1 87.4,204.1 87.4,191 "/>
<path class="st1" d="M100.7,201.1l-0.6,3h-2.5l2.8-13.1h3l2.5,13.1h-2.4l-0.5-3L100.7,201.1z M102.8,199.1l-0.4-2.8
	c-0.1-0.8-0.3-2.1-0.4-3h-0.1c-0.1,0.9-0.3,2.2-0.5,3l-0.5,2.7L102.8,199.1z"/>
<path class="st1" d="M108.7,204.1V191h2.3l2,5.1c0.4,1,1,2.7,1.4,3.8l0,0c-0.1-1.4-0.2-3.6-0.2-6V191h2.2v13.1h-2.3l-2-5
	c-0.5-1.3-1-2.6-1.3-3.9l0,0c0,1.3,0.2,3.3,0.2,6v2.9L108.7,204.1z"/>
<path class="st1" d="M121.3,204.1v-5l-2.9-8.1h2.7l0.9,3.1c0.2,0.8,0.5,1.8,0.7,2.8l0,0c0.2-1,0.4-1.9,0.6-2.8l0.8-3.1h2.6l-2.9,8
	v5.1L121.3,204.1z"/>
<path class="st1" d="M130.4,201.1l-0.6,3h-2.5l2.8-13.1h3l2.6,13.1h-2.4l-0.6-3L130.4,201.1z M132.5,199.1l-0.4-2.8
	c-0.1-0.8-0.3-2.1-0.4-3l0,0c-0.1,0.9-0.3,2.2-0.5,3l-0.5,2.7L132.5,199.1z"/>
<path class="st1" d="M138.4,204.1V191h2.3l2,5.1c0.4,1,1,2.7,1.4,3.8l0,0c-0.1-1.4-0.3-3.6-0.3-6V191h2.2v13.1h-2.3l-2-5
	c-0.5-1.3-0.9-2.6-1.3-3.9l0,0c0,1.3,0.1,3.3,0.1,6v2.9L138.4,204.1z"/>
<path class="st1" d="M156.8,203.7c-0.9,0.3-1.8,0.5-2.7,0.5c-1.3,0.1-2.6-0.4-3.5-1.3c-1.2-1.5-1.8-3.4-1.7-5.3
	c0.1-4.8,2.8-6.7,5.6-6.7c0.7,0,1.4,0.1,2.1,0.4l-0.4,2.2c-0.5-0.2-1-0.3-1.5-0.3c-1.7,0-3.1,1.2-3.1,4.6c0,3.1,1.2,4.3,2.4,4.3
	c0.2,0,0.3,0,0.5-0.1v-3.1h-1.2v-2.1h3.5V203.7z"/>
<path class="st1" d="M166.7,191v8.5c0,1.9,0.6,2.5,1.2,2.5c0.6,0,1.3-0.5,1.3-2.5V191h2.5v8.1c0,3.3-1.3,5.2-3.8,5.2
	c-2.7,0-3.8-1.9-3.8-5.1V191H166.7z"/>
<path class="st1" d="M175.1,204.1V191h2.3l2,5.1c0.4,1,1,2.7,1.4,3.8l0,0c-0.1-1.4-0.3-3.6-0.3-6V191h2.2v13.1h-2.3l-2-5
	c-0.4-1.1-1-2.8-1.3-3.9l0,0c0.1,1.3,0.2,3.3,0.2,6v2.9L175.1,204.1z"/>
<rect x="186.3" y="191" class="st1" width="2.6" height="13.1"/>
<path class="st1" d="M194.2,204.1l-2.9-13.1h2.8l0.9,5.6c0.2,1.4,0.5,3,0.7,4.5l0,0c0.2-1.6,0.4-3.1,0.6-4.6l0.9-5.6h2.8l-3,13.1
	L194.2,204.1z"/>
<polygon class="st1" points="207.8,198.3 204.9,198.3 204.9,201.9 208.2,201.9 208.2,204.1 202.3,204.1 202.3,191 208,191 
	208,193.2 204.9,193.2 204.9,196.2 207.8,196.2 "/>
<path class="st1" d="M211.2,191.2c0.9-0.2,1.8-0.2,2.8-0.2c1.2-0.1,2.5,0.2,3.5,1c0.7,0.7,1.1,1.7,1,2.7c0,1.4-0.7,2.7-2,3.3l0,0
	c0.9,0.4,1.3,1.2,1.6,2.6c0.2,1.2,0.5,2.4,0.8,3.6h-2.6c-0.3-1-0.5-2.1-0.6-3.1c-0.2-1.6-0.6-2.1-1.5-2.1h-0.4v5.2h-2.5V191.2z
	 M213.7,196.9h0.4c1,0,1.8-0.9,1.8-1.9c0,0,0-0.1,0-0.1c0-1.1-0.4-1.9-1.6-1.9c-0.2,0-0.4,0-0.6,0.1V196.9z"/>
<path class="st1" d="M221.2,201.5c0.7,0.3,1.4,0.5,2.1,0.5c1.2,0,1.8-0.6,1.8-1.5s-0.6-1.4-1.7-2.1c-1.4-0.7-2.3-2.1-2.4-3.6
	c-0.1-2.1,1.5-3.8,3.6-3.9c0.2,0,0.3,0,0.5,0c0.7,0,1.4,0.2,2.1,0.5l-0.4,2.2c-0.5-0.3-1.1-0.5-1.7-0.4c-1.1,0-1.6,0.6-1.6,1.4
	s0.4,1.2,1.8,2c1.4,0.7,2.3,2.1,2.4,3.7c0,2.4-1.8,3.9-4.3,3.9c-0.9,0-1.7-0.2-2.5-0.5L221.2,201.5z"/>
<rect x="230.3" y="191" class="st1" width="2.5" height="13.1"/>
<polygon class="st1" points="237.8,193.4 235.4,193.4 235.4,191 242.6,191 242.6,193.4 240.3,193.4 240.3,204.1 237.8,204.1 "/>
<path class="st1" d="M247.3,204.1v-5l-2.9-8.1h2.7l0.9,3.1c0.2,0.8,0.5,1.8,0.7,2.8l0,0c0.2-1,0.4-1.9,0.6-2.8l0.8-3.1h2.6l-2.9,8
	v5.1L247.3,204.1z"/>
<path class="st1" d="M110.8,150.1h-5V175h5v-13.5h4.9v-2.9h-4.9V150.1z M94.3,172.1h-5v12.7h22.1v-3H94.3L94.3,172.1z M246,176.8
	h4.7V150h-24.2v3H246V176.8z M128.7,149.3c-12.4,0-12.4,18,0,18C141,167.3,141,149.3,128.7,149.3 M128.7,152.1c6,0,6,12.5,0,12.5
	C122.7,164.6,122.6,152.1,128.7,152.1 M98.7,154.6h4.5v-3h-7.5v-2.8h-5v2.8h-7.5v3h4.5c-5.5,4.3-3.7,14.9,5.5,14.9
	S104.2,158.9,98.7,154.6 M93.2,155.5c5.7,0,5.7,11.4,0,11.4S87.5,155.5,93.2,155.5 M194.6,175H212v9.8h5v-12.7h-22.4V175z
	 M217,150.1h-5v20.4h5v-9h4.9v-2.9H217V150.1z M204.9,154.7h4.5v-3H202v-2.8h-5v2.8h-7.5v3h4.5c-5.5,4.3-3.7,14.9,5.5,14.9
	S210.4,158.9,204.9,154.7 M199.5,155.5c5.7,0,5.7,11.4,0,11.4S193.8,155.5,199.5,155.5 M136.8,168.8c-12.7,0-12.8,17.2,0,17.2
	S149.4,168.8,136.8,168.8 M136.8,183.3c-6.2,0-6.2-11.8,0-11.8C143,171.5,142.9,183.3,136.8,183.3 M242.9,179.6v-15.1h-4.6v15.1H235
	v-15.1h-4.6v15.1h-5v3h27.3v-3H242.9z M145.9,150.1h-5v18.6h5v-4.9h4.9v-3h-4.9v-4.2h4.9v-2.9h-4.9V150.1z M178.7,160.8h-2.3v-10.8
	h-4.7v19.8h-9.3V153h6.9v-2.9h-11.9v22.8h14.3v12h4.7v-21.1h2.3v21.1h4.7v-34.8h-4.7L178.7,160.8z"/>
</svg>
